<?xml version="1.0" encoding="UTF-8"?>
<svg version="1.1" xmlns="http://www.w3.org/2000/svg" width="1080" height="768">
<path d="M0 0 C2.99505452 0 5.14698792 0.33773685 7.5546875 2.20703125 C17.13004606 12.40255552 19.95160371 28.45131878 20.375 42 C19.36382391 73.17792956 1.41473406 98.90192437 -15.47558594 123.79519653 C-20.44272107 131.1163527 -25.31468706 138.49484188 -30 146 C-30.37012207 146.59055176 -30.74024414 147.18110352 -31.12158203 147.78955078 C-41.04030143 163.79585672 -48.51303329 181.72215202 -44.82421875 200.87109375 C-41.4287134 213.76114011 -35.05205009 225.2483324 -24 233 C-11.07862761 239.87047331 1.92419485 241.82121742 16.01171875 237.97265625 C29.17493153 233.68815954 37.46693128 226.1100786 44 214 C49.37041825 202.7476951 51.30957439 193.39488025 51.125 181 C51.11597656 179.84371094 51.10695313 178.68742188 51.09765625 177.49609375 C51.07424922 174.66384353 51.04145995 171.83203381 51 169 C51.99 168.67 52.98 168.34 54 168 C60.96805471 191.79715111 60.69272035 216.48489873 48.98828125 238.640625 C36.32075067 260.04352539 17.61035241 273.08493566 -6.1875 279.375 C-25.34802993 284.14956325 -45.37600714 283.75331479 -64 277 C-64.64743164 276.77006348 -65.29486328 276.54012695 -65.96191406 276.30322266 C-79.13537896 271.49337617 -90.04724232 263.77906208 -100 254 C-100.62519531 253.38769531 -101.25039062 252.77539062 -101.89453125 252.14453125 C-116.97227462 236.18186389 -123.55617666 213.35596176 -123.42163086 191.83691406 C-122.36929861 155.2032487 -103.75984464 128.34908642 -78 104 C-75.95019924 102.17144031 -73.88356057 100.36729856 -71.79516602 98.58300781 C-69.95009976 96.95599712 -68.22401997 95.25429143 -66.5 93.5 C-64.22542738 91.18598024 -61.90032324 89.01688439 -59.4296875 86.9140625 C-32.89337154 63.81831716 -14.0052069 37.86712656 -2.34765625 4.69140625 C-1 1 -1 1 0 0 Z " fill="#161C37" transform="translate(292,42)"/>
<path d="M0 0 C7.79738781 -0.19908224 15.22097681 -0.09420217 22.9375 1.0625 C29.13541039 1.98311012 33.99518162 2.09222319 40.0625 0.4375 C44.38293849 -0.53808289 47.43689458 -0.973059 51.359375 1.46875 C59.38075472 7.74635152 66.44560954 15.06154447 73.0625 22.78125 C74.98602777 24.98399955 76.96105114 27.133137 78.95019531 29.27661133 C83.78065226 34.48367175 88.36375386 39.81654839 92.8203125 45.3515625 C94.97757399 47.97275119 97.21311 50.49154281 99.5 53 C103.41891252 57.29991791 107.09170869 61.75919547 110.75 66.28125 C113.64711368 69.78192903 116.70070434 73.12339768 119.76171875 76.48046875 C122.02847158 79.03204917 124.17540087 81.65171532 126.3125 84.3125 C130.72138108 89.76376101 135.4352398 94.87713498 140.21484375 100 C142.97346339 102.95876022 145.64611326 105.98395085 148.29296875 109.04296875 C150.33633431 111.3855915 152.41680859 113.69273422 154.5 116 C157.13180445 118.91488929 159.74286926 121.84273211 162.3125 124.8125 C166.9117275 130.09152094 171.70010948 135.19754532 176.45800781 140.33300781 C178.85435266 142.92360987 181.24061996 145.52338794 183.625 148.125 C184.42164063 148.99382812 185.21828125 149.86265625 186.0390625 150.7578125 C188.7608739 153.73352493 191.47270757 156.71830448 194.18505859 159.70263672 C194.6486528 160.21265732 195.11224701 160.72267792 195.58988953 161.24815369 C196.72662672 162.49873849 197.86331797 163.74936505 199 165 C199.02353996 154.11343412 199.0411211 143.22687464 199.05181217 132.34028816 C199.05695248 127.28104862 199.06388109 122.22182693 199.07543945 117.16259766 C199.11942919 97.35968808 199.13992063 77.56531431 198.546875 57.76953125 C198.52654268 57.07884174 198.50621037 56.38815224 198.48526192 55.67653275 C198.76388369 32.23635348 198.76388369 32.23635348 189.8125 11.5 C183.8240653 8.30616816 177.7193082 6.71482002 171 6 C171.33 4.02 171.66 2.04 172 0 C179.03798479 -0.4270238 185.64575274 0.32312666 192.5625 1.5 C203.45606633 3.30544162 212.471468 3.14550662 223.31860352 1.06787109 C228.6276941 0.0819556 233.59831593 -0.12848406 239 0 C239 1.98 239 3.96 239 6 C238.19175781 6.15855469 237.38351562 6.31710938 236.55078125 6.48046875 C228.08032633 8.2029746 228.08032633 8.2029746 222 14 C217.26687266 23.99215771 216.71681587 35.42240782 215.9375 46.3125 C215.85951172 47.30572266 215.78152344 48.29894531 215.70117188 49.32226562 C214.13289006 70.3320576 213.85598618 91.33170654 213.89860606 112.39055896 C213.90497471 116.08467585 213.90545384 119.77879411 213.90663147 123.47291565 C213.90970581 130.42785342 213.91786508 137.38277496 213.92798096 144.33770567 C213.93926515 152.27278955 213.94468315 160.20787431 213.94967639 168.14296424 C213.96005225 184.42865224 213.97757388 200.71432403 214 217 C203.05567376 217.04330258 203.05567376 217.04330258 200 214.0234375 C199.34 213.14945313 198.68 212.27546875 198 211.375 C197.2265625 210.38242187 196.453125 209.38984375 195.65625 208.3671875 C195.23472656 207.82545898 194.81320312 207.28373047 194.37890625 206.72558594 C191.85296901 203.56458657 189.16719623 200.54176336 186.5 197.5 C182.67563744 193.11897532 178.90840353 188.70933793 175.25 184.1875 C171.72330631 179.83061747 168.02497911 175.67324096 164.25 171.53125 C161.13067124 168.02200514 158.20250867 164.36837877 155.25 160.71875 C152.35524289 157.22091849 149.30410461 153.88214596 146.24609375 150.52734375 C143.93812402 147.93037607 141.74444137 145.26595987 139.5625 142.5625 C135.64897542 137.72694083 131.53496401 133.12012952 127.328125 128.5390625 C123.22473889 124.06389308 119.25378548 119.479567 115.32421875 114.8515625 C109.72574425 108.26746062 104.04035797 101.79850031 98.1496582 95.47387695 C95.5538359 92.68643686 92.99024276 89.88216958 90.5 87 C86.47460824 82.34930467 82.27783756 77.85868511 78.09765625 73.34765625 C75.28023599 70.30700493 72.48234985 67.24892271 69.6875 64.1875 C65.13754651 59.21847185 60.54531247 54.29040277 55.9375 49.375 C55.28160889 48.67528076 54.62571777 47.97556152 53.94995117 47.25463867 C50.51296506 43.59063751 50.51296506 43.59063751 47 40 C46.95304537 53.08580898 46.91781789 66.17159696 46.89637566 79.25747395 C46.88606918 85.33793996 46.87216011 91.41834714 46.84912109 97.4987793 C46.67188261 131.34786841 46.67188261 131.34786841 47.8828125 165.16796875 C47.92187588 165.86149256 47.96093925 166.55501637 48.00118637 167.26955605 C48.47447349 184.78375345 48.47447349 184.78375345 56 200 C62.2439431 205.15803995 69.19007691 206.17790283 77 207 C77 209.31 77 211.62 77 214 C73.39506861 213.71734939 69.79126108 213.42217168 66.1875 213.125 C65.18267578 213.04636719 64.17785156 212.96773437 63.14257812 212.88671875 C58.12668195 212.46738338 53.2406223 211.90679892 48.30078125 210.9296875 C40.12166599 209.37053677 32.76967301 209.99873288 24.625 211.4375 C17.76173417 212.59044271 10.95138367 213.54698848 4 214 C4 212.02 4 210.04 4 208 C4.79664063 207.82984375 5.59328125 207.6596875 6.4140625 207.484375 C13.98602857 205.75258714 19.91300724 204.17519311 24.6875 197.6875 C38.82475793 173.36777978 32.18802232 130.26839312 32.18530273 103.23681641 C32.18520089 97.93503356 32.19891236 92.63338391 32.21607494 87.33163261 C32.2273193 83.17371039 32.22921827 79.01581931 32.22869301 74.85788345 C32.22985221 72.90555483 32.23415378 70.95322482 32.24202538 69.00091171 C32.27966148 58.71601769 32.03411291 48.51091361 31.1730957 38.25830078 C31.10389766 37.37711515 31.03469961 36.49592953 30.96340466 35.58804131 C30.18569535 27.30321424 28.63905085 18.40108475 23 12 C16.51261955 6.92438109 7.89742478 6.78151599 0 6 C0 4.02 0 2.04 0 0 Z " fill="#BD973F" transform="translate(399,92)"/>
<path d="M0 0 C0.70364685 -0.00555908 1.4072937 -0.01111816 2.13226318 -0.0168457 C15.73160499 -0.0707365 28.45830555 1.81508222 41.72314453 4.91601562 C44.65022893 5.42263675 47.41009103 5.4510651 50.375 5.375 C50.705 4.385 51.035 3.395 51.375 2.375 C53.355 3.035 55.335 3.695 57.375 4.375 C56.9636319 8.32413379 56.36966213 11.592138 54.8125 15.25 C52.09445508 22.15781171 53.42775032 29.29640112 54.15234375 36.51171875 C54.51166291 41.13243701 54.45561933 45.74386721 54.375 50.375 C51.735 50.375 49.095 50.375 46.375 50.375 C46.15585937 49.40820312 45.93671875 48.44140625 45.7109375 47.4453125 C43.00043401 36.08255419 39.03446307 25.6776255 29.375 18.375 C19.64348735 12.56293796 10.74064814 9.98768348 -0.5 10.0625 C-1.82608276 10.07095947 -1.82608276 10.07095947 -3.17895508 10.07958984 C-14.68411168 10.29408376 -22.99098957 13.3965242 -31.6015625 21.15625 C-38.31008857 28.12169835 -40.81296014 35.86140785 -41.0625 45.4375 C-40.65420287 56.79558374 -37.42840085 64.96762076 -29.625 73.375 C-16.94091108 84.45220973 -0.98165985 91.42191571 14.13623047 98.50268555 C35.37949074 108.46500542 56.3095894 118.81139233 65.8125 141.625 C70.21677374 156.21058187 68.72576259 173.49933758 62.0546875 187.05859375 C53.0273671 203.2633738 38.45052235 212.871288 20.92651367 218.21411133 C-2.78085284 224.60145262 -28.06661848 220.43945516 -50.93481445 212.95043945 C-55.28710309 211.56559565 -59.06411646 211.03164616 -63.625 211.375 C-64.64519573 212.3543879 -65.64649805 213.35395449 -66.625 214.375 C-69.8125 214.5625 -69.8125 214.5625 -72.625 214.375 C-74.05311035 209.78095829 -73.0676693 207.11843173 -71.25 202.75 C-70.55777344 201.06003906 -70.55777344 201.06003906 -69.8515625 199.3359375 C-69.24441406 197.87027344 -69.24441406 197.87027344 -68.625 196.375 C-67.3889395 192.66681849 -67.99403869 189.76616666 -68.5625 186 C-69.57464085 178.75764353 -69.85057416 171.69362833 -69.625 164.375 C-67.315 164.375 -65.005 164.375 -62.625 164.375 C-62.33367188 165.33019531 -62.04234375 166.28539062 -61.7421875 167.26953125 C-56.78895557 183.07963997 -50.16827706 196.08062947 -35.50390625 204.87109375 C-20.91292963 212.49324572 -2.22024267 214.27047819 13.6875 209.8125 C24.25061005 205.8548176 32.94505241 198.99937003 37.6875 188.6875 C42.20862758 177.94743744 41.44304592 166.08649848 37.625 155.2421875 C30.16268643 138.12550575 10.20650103 130.10252052 -5.63671875 122.49609375 C-6.35062271 122.15289093 -7.06452667 121.80968811 -7.80006409 121.45608521 C-11.38334951 119.73674993 -14.97235569 118.03138553 -18.57250977 116.34765625 C-31.88743406 110.06364839 -44.10951545 102.8516103 -54.625 92.375 C-55.20894531 91.81425781 -55.79289063 91.25351563 -56.39453125 90.67578125 C-64.93120951 81.75008981 -67.54860461 68.87398766 -67.65625 56.8984375 C-66.98800966 41.82961789 -62.09031272 27.57755032 -50.80859375 17.125 C-35.39030783 4.76830574 -19.69236671 0.12979849 0 0 Z " fill="#BD973F" transform="translate(711.625,87.625)"/>
<path d="M0 0 C7.71914441 0.03163584 15.2252481 1.02523896 22.85009766 2.18261719 C33.88947763 3.79551983 44.23969602 3.34175383 55.25 1.75 C64.04366813 0.55514873 72.49001278 -0.17234974 81.375 0.25 C81.375 2.23 81.375 4.21 81.375 6.25 C80.529375 6.33636719 79.68375 6.42273438 78.8125 6.51171875 C71.80369968 7.37985424 65.60102174 8.17882335 60.375 13.25 C52.11099218 24.39276129 53.22447299 41.84767964 53.22973633 54.97900391 C53.22637772 56.20176025 53.2230191 57.4245166 53.21955872 58.68432617 C53.2117416 62.00704353 53.20838435 65.32969835 53.20774293 68.65242052 C53.20702712 70.73861355 53.20488281 72.82480023 53.20224571 74.91099167 C53.19302038 82.21849731 53.18890712 89.52598483 53.18969727 96.83349609 C53.19029667 103.59704012 53.17976465 110.36050405 53.1639536 117.12402785 C53.15078494 122.96990597 53.14551727 128.81575822 53.14615268 134.66165102 C53.14640502 138.13570571 53.14370232 141.60968915 53.13297462 145.08372879 C51.60283393 173.80405124 51.60283393 173.80405124 60.5 200.125 C67.0684295 204.97992616 73.29001376 206.73666754 81.375 207.25 C81.375 209.23 81.375 211.21 81.375 213.25 C71.47749062 213.7204802 62.03904325 212.7314884 52.25585938 211.31713867 C41.06042339 209.75840946 30.59998236 210.14357437 19.4375 211.75 C2.48063167 214.03490288 2.48063167 214.03490288 -5.625 213.25 C-6.625 212.25 -6.625 212.25 -6.6875 209.6875 C-6.6565625 208.4809375 -6.6565625 208.4809375 -6.625 207.25 C-5.779375 207.16363281 -4.93375 207.07726562 -4.0625 206.98828125 C2.91214236 206.12437668 9.13876828 205.25540016 14.375 200.25 C17.66271955 195.99422969 19.0877316 192.45575695 20.0625 187.1875 C20.29324219 186.00027344 20.52398438 184.81304687 20.76171875 183.58984375 C22.29066304 173.86107026 22.52456919 163.99680195 22.52026367 154.16772461 C22.52362228 153.03727722 22.5269809 151.90682983 22.53044128 150.74212646 C22.53985423 147.0455207 22.54188964 143.34896072 22.54296875 139.65234375 C22.54618851 137.05082685 22.54955311 134.44931012 22.55305481 131.84779358 C22.55942042 126.407071 22.56094043 120.96636057 22.56030273 115.52563477 C22.55970383 109.2915165 22.57022879 103.05748528 22.5860464 96.82338899 C22.60085234 90.76591906 22.6042866 84.70848993 22.60369301 78.65100288 C22.60486127 76.10252083 22.60921693 73.55403791 22.61702538 71.00556755 C23.85085345 41.45671675 23.85085345 41.45671675 15.3125 13.875 C8.99685903 8.23123573 1.62979956 6.78256771 -6.625 6.25 C-6.667721 4.58388095 -6.66563832 2.91617115 -6.625 1.25 C-4.85257433 -0.52242567 -2.40896197 0.03449588 0 0 Z " fill="#BD973F" transform="translate(794.625,91.75)"/>
<path d="M0 0 C337.26 0 674.52 0 1022 0 C1022 1.98 1022 3.96 1022 6 C684.74 6 347.48 6 0 6 C0 4.02 0 2.04 0 0 Z " fill="#161C37" transform="translate(29,378)"/>
<path d="M0 0 C2.56550427 0.35978387 3.70366365 0.63631929 5.36865234 2.6796875 C5.77035645 3.40414062 6.17206055 4.12859375 6.5859375 4.875 C7.26571655 6.09340576 7.26571655 6.09340576 7.95922852 7.33642578 C8.42643311 8.21540527 8.8936377 9.09438477 9.375 10 C9.85960693 10.89831543 10.34421387 11.79663086 10.84350586 12.72216797 C15.14291893 20.89458222 18.39570749 29.1529269 21 38 C21.26425781 38.87269531 21.52851563 39.74539062 21.80078125 40.64453125 C25.20864681 54.25281072 23.96018143 69.49084389 17.4921875 81.890625 C8.68197767 96.56064881 -4.18704359 106.95792624 -18.328125 116.2265625 C-31.07906552 124.68990606 -39.43886858 137.95758993 -47 151 C-49.79610849 149.97079411 -50.85723527 149.23780976 -52.4140625 146.64453125 C-59.97602326 128.95930044 -59.23665771 111.93257025 -52.6875 93.9375 C-45.49705577 77.24856771 -35.54568115 62.13407259 -24.19140625 48.02734375 C-12.80837063 33.83808534 -4.64690375 17.57874776 0 0 Z " fill="#BD973F" transform="translate(316,107)"/>
<path d="M0 0 C3.3 0 6.6 0 10 0 C13.00757001 6.6073348 15.69886243 13.28103471 18.265625 20.0703125 C19.08158456 22.20589989 19.89800565 24.34131099 20.71484375 26.4765625 C21.98069268 29.7919044 23.24365774 33.10822291 24.49853516 36.42773438 C31.66545306 58.59879362 31.66545306 58.59879362 45 77 C49.59748422 77.64637211 49.59748422 77.64637211 53.64160156 75.7746582 C59.57869702 68.01823353 57.30187336 52.55509687 57.26074219 43.2175293 C57.24998418 40.30822088 57.26070645 37.39952453 57.2734375 34.49023438 C57.27211637 32.61458199 57.26955494 30.73892998 57.265625 28.86328125 C57.26967346 28.00680496 57.27372192 27.15032867 57.27789307 26.26789856 C57.32309161 16.45500149 57.32309161 16.45500149 53.1875 8 C50.79265383 6.90521318 48.60395735 6.36166074 46 6 C46 4.68 46 3.36 46 2 C49.66582607 1.79478951 53.3301594 1.67174799 57 1.5625 C58.02996094 1.50384766 59.05992187 1.44519531 60.12109375 1.38476562 C65.67109595 1.26103946 69.18151582 1.52132808 73.48828125 5.21484375 C74.69240179 6.44458718 75.86731502 7.70416055 77 9 C78.13501953 10.2684375 78.13501953 10.2684375 79.29296875 11.5625 C80.23076172 12.7690625 80.23076172 12.7690625 81.1875 14 C89.31249063 24.19826411 97.96879786 33.94796888 106.77734375 43.55859375 C109.40738938 46.44748394 111.97619385 49.3851683 114.52734375 52.34375 C115.96374707 53.95922747 117.46564018 55.47814493 119 57 C119.04970314 51.59229854 119.08586241 46.1847322 119.10986328 40.77685547 C119.11987648 38.93991782 119.13349102 37.10299593 119.15087891 35.26611328 C119.17533422 32.61486911 119.18653013 29.963837 119.1953125 27.3125 C119.20563507 26.50071289 119.21595764 25.68892578 119.22659302 24.85253906 C119.2277032 19.1186558 119.00083045 12.95360686 115.6875 8.0625 C113.51565784 6.69504383 111.5249602 6.34121084 109 6 C109 4.68 109 3.36 109 2 C118.57 2 128.14 2 138 2 C138 3.32 138 4.64 138 6 C137.236875 6.226875 136.47375 6.45375 135.6875 6.6875 C132.34471899 8.32002096 131.52726099 9.64002581 130 13 C129.1373944 17.21483901 128.85411344 21.25979973 128.79467773 25.55615234 C128.77473251 26.83702728 128.75478729 28.11790222 128.73423767 29.43759155 C128.71725854 30.82037234 128.70037955 32.20315435 128.68359375 33.5859375 C128.66299945 35.01226368 128.64200236 36.43858409 128.62062073 37.86489868 C128.56565556 41.6032034 128.51613457 45.34156085 128.46777344 49.07995605 C128.41737076 52.90100753 128.36178305 56.72198326 128.30664062 60.54296875 C128.19937206 68.02858153 128.09785878 75.51425767 128 83 C126.55771518 83.05469933 125.11483202 83.09377748 123.671875 83.1262207 C122.8684668 83.14965042 122.06505859 83.17308014 121.23730469 83.19721985 C119 83 119 83 116.25 80.98046875 C115.5075 80.05878906 114.765 79.13710938 114 78.1875 C113.16210938 77.176875 112.32421875 76.16625 111.4609375 75.125 C110.64882813 74.09375 109.83671875 73.0625 109 72 C107.54256942 70.22842361 106.08425641 68.45757275 104.625 66.6875 C103.53058594 65.33398438 103.53058594 65.33398438 102.4140625 63.953125 C95.51716292 55.51614105 88.34249516 47.31038275 81.0234375 39.23828125 C75.91109837 33.58312619 70.95713487 27.79091301 66 22 C65.8970604 34.02651254 65.88975003 46.04354858 66.375 58.0625 C66.40585693 58.95855957 66.43671387 59.85461914 66.46850586 60.77783203 C66.6986791 65.81484566 67.19182029 70.27044151 69 75 C71.91765 76.9451 73.62537285 77.45276317 77 78 C77 79.65 77 81.3 77 83 C76.09121094 82.89171875 76.09121094 82.89171875 75.1640625 82.78125 C67.33677669 81.91422757 59.76874772 81.63049679 51.9375 82.5625 C47.96430513 83.00601943 44.48384673 82.79837668 40.5390625 82.26171875 C31.39262927 81.31893256 22.10985672 81.95887352 13 83 C13 81.35 13 79.7 13 78 C15.97 77.01 15.97 77.01 19 76 C18.57864714 69.57436889 17.2331125 64.3617259 14.83984375 58.3828125 C14 56 14 56 14 53 C5.09 53 -3.82 53 -13 53 C-15.48451938 61.22520368 -15.48451938 61.22520368 -17.75 69.5 C-18.01296875 70.5003125 -18.2759375 71.500625 -18.546875 72.53125 C-19.25436264 74.99238761 -19.25436264 74.99238761 -18 77 C-15.47266765 77.65555119 -15.47266765 77.65555119 -13 78 C-13 79.65 -13 81.3 -13 83 C-14.27875 82.835 -15.5575 82.67 -16.875 82.5 C-25.03580476 81.6046139 -32.87242626 81.95128081 -41 83 C-41 81.35 -41 79.7 -41 78 C-40.29875 77.814375 -39.5975 77.62875 -38.875 77.4375 C-32.37160339 74.18580169 -29.45984016 68.29439497 -26.34375 62.0234375 C-25.99873947 61.3304657 -25.65372894 60.6374939 -25.29826355 59.92352295 C-20.87364734 50.88369397 -17.11265963 41.56449869 -13.3125 32.25 C-12.57282759 30.44898785 -11.83259524 28.64820556 -11.09179688 26.84765625 C-9.68427988 23.42494062 -8.27957187 20.00109742 -6.87744141 16.57617188 C-4.60938632 11.04055063 -2.31165784 5.51756041 0 0 Z M0 19 C-1.42627939 22.68366998 -2.8503884 26.36817065 -4.27246094 30.0534668 C-4.75688538 31.30793105 -5.24191004 32.56216368 -5.72753906 33.81616211 C-6.42409214 35.61511705 -7.11833262 37.41496689 -7.8125 39.21484375 C-8.44091797 40.84087524 -8.44091797 40.84087524 -9.08203125 42.49975586 C-10.05744265 44.71254897 -10.05744265 44.71254897 -10 46 C-3.07 46 3.86 46 11 46 C8.67674712 36.70698849 5.45657902 27.91551288 2 19 C1.34 19 0.68 19 0 19 Z " fill="#BD973F" transform="translate(688,640)"/>
<path d="M0 0 C7.1095154 6.51350812 11.59486709 15.14643323 12.1484375 24.828125 C12.40552425 36.83112602 10.75233485 46.33984604 2.78515625 55.8125 C-5.33981833 64.05009799 -15.69059139 68.16275148 -27.1875 68.3125 C-38.42309778 68.15297086 -47.07553042 64.57590838 -55.1875 56.8125 C-61.01543989 50.43819074 -65.47579171 42.53092649 -66.1875 33.8125 C-66.25066406 33.10867187 -66.31382812 32.40484375 -66.37890625 31.6796875 C-66.85992657 22.0282475 -64.23382234 12.11177435 -57.94140625 4.65234375 C-41.37473726 -12.72605513 -19.044421 -15.35139639 0 0 Z " fill="#161C37" transform="translate(209.1875,87.1875)"/>
<path d="M0 0 C10.99980043 6.39397266 18.8735696 13.55782501 22.78125 25.91381836 C23.8110565 30.16808026 23.91049248 34.33401338 23.87890625 38.6953125 C23.87318604 39.61666992 23.86746582 40.53802734 23.86157227 41.48730469 C23.66621618 48.96214151 22.32964647 54.93898431 18.37890625 61.3828125 C17.88261719 62.19878906 17.38632812 63.01476562 16.875 63.85546875 C10.8306885 72.57966777 1.59508923 77.92652927 -8.62109375 80.3828125 C-12.07113431 80.79719531 -15.46136421 80.86073908 -18.93359375 80.8203125 C-20.31562988 80.80786499 -20.31562988 80.80786499 -21.72558594 80.79516602 C-34.45980035 80.48028444 -43.32651671 76.59579472 -52.3671875 67.65625 C-60.93327579 58.29977452 -63.13980343 47.69109054 -62.9296875 35.26953125 C-61.95753613 23.02534625 -57.11350227 14.26625593 -48.18359375 6.0703125 C-44.63870074 3.20101569 -40.83197102 1.1143882 -36.62109375 -0.6171875 C-35.7703125 -0.97554687 -34.91953125 -1.33390625 -34.04296875 -1.703125 C-23.92975179 -4.40460076 -9.57337859 -4.39484154 0 0 Z M-35.80859375 9.5078125 C-44.8802832 20.76252883 -44.57911064 35.6912632 -43.62109375 49.3828125 C-42.26206867 58.97554074 -38.0327445 66.38154787 -30.93359375 72.8203125 C-25.67195051 76.37547685 -19.74033911 75.82917655 -13.62109375 75.3828125 C-6.63567453 72.96966768 -2.24271843 67.66029528 1.37890625 61.3828125 C7.02353717 47.66008755 6.79895689 32.44056754 2.37890625 18.3828125 C-0.63181639 11.54026104 -4.17639434 7.15235366 -10.62109375 3.3828125 C-20.44419729 0.10844465 -28.78980975 2.14070175 -35.80859375 9.5078125 Z " fill="#BD973F" transform="translate(384.62109375,642.6171875)"/>
<path d="M0 0 C10.99980043 6.39397266 18.8735696 13.55782501 22.78125 25.91381836 C23.8110565 30.16808026 23.91049248 34.33401338 23.87890625 38.6953125 C23.87318604 39.61666992 23.86746582 40.53802734 23.86157227 41.48730469 C23.66621618 48.96214151 22.32964647 54.93898431 18.37890625 61.3828125 C17.88261719 62.19878906 17.38632813 63.01476562 16.875 63.85546875 C10.8306885 72.57966777 1.59508923 77.92652927 -8.62109375 80.3828125 C-12.07113431 80.79719531 -15.46136421 80.86073908 -18.93359375 80.8203125 C-20.31562988 80.80786499 -20.31562988 80.80786499 -21.72558594 80.79516602 C-34.45980035 80.48028444 -43.32651671 76.59579472 -52.3671875 67.65625 C-60.93327579 58.29977452 -63.13980343 47.69109054 -62.9296875 35.26953125 C-61.95753613 23.02534625 -57.11350227 14.26625593 -48.18359375 6.0703125 C-44.63870074 3.20101569 -40.83197102 1.1143882 -36.62109375 -0.6171875 C-35.7703125 -0.97554687 -34.91953125 -1.33390625 -34.04296875 -1.703125 C-23.92975179 -4.40460076 -9.57337859 -4.39484154 0 0 Z M-35.80859375 9.5078125 C-44.8802832 20.76252883 -44.57911064 35.6912632 -43.62109375 49.3828125 C-42.26206867 58.97554074 -38.0327445 66.38154787 -30.93359375 72.8203125 C-25.67195051 76.37547685 -19.74033911 75.82917655 -13.62109375 75.3828125 C-6.63567453 72.96966768 -2.24271843 67.66029528 1.37890625 61.3828125 C7.02353717 47.66008755 6.79895689 32.44056754 2.37890625 18.3828125 C-0.63181639 11.54026104 -4.17639434 7.15235366 -10.62109375 3.3828125 C-20.44419729 0.10844465 -28.78980975 2.14070175 -35.80859375 9.5078125 Z " fill="#BD973F" transform="translate(194.62109375,642.6171875)"/>
<path d="M0 0 C3.66582607 -0.20521049 7.3301594 -0.32825201 11 -0.4375 C12.02996094 -0.49615234 13.05992187 -0.55480469 14.12109375 -0.61523438 C19.67109595 -0.73896054 23.18151582 -0.47867192 27.48828125 3.21484375 C28.69240179 4.44458718 29.86731502 5.70416055 31 7 C31.75667969 7.845625 32.51335938 8.69125 33.29296875 9.5625 C33.91816406 10.366875 34.54335938 11.17125 35.1875 12 C43.31249063 22.19826411 51.96879786 31.94796888 60.77734375 41.55859375 C63.40738938 44.44748394 65.97619385 47.3851683 68.52734375 50.34375 C69.96374707 51.95922747 71.46564018 53.47814493 73 55 C73.04970314 49.59229854 73.08586241 44.1847322 73.10986328 38.77685547 C73.11987648 36.93991782 73.13349102 35.10299593 73.15087891 33.26611328 C73.17533422 30.61486911 73.18653013 27.963837 73.1953125 25.3125 C73.20563507 24.50071289 73.21595764 23.68892578 73.22659302 22.85253906 C73.2277032 17.1186558 73.00083045 10.95360686 69.6875 6.0625 C67.51565784 4.69504383 65.5249602 4.34121084 63 4 C63 2.68 63 1.36 63 0 C72.57 0 82.14 0 92 0 C92 1.32 92 2.64 92 4 C91.236875 4.226875 90.47375 4.45375 89.6875 4.6875 C86.34471899 6.32002096 85.52726099 7.64002581 84 11 C83.1373944 15.21483901 82.85411344 19.25979973 82.79467773 23.55615234 C82.77473251 24.83702728 82.75478729 26.11790222 82.73423767 27.43759155 C82.71725854 28.82037234 82.70037955 30.20315435 82.68359375 31.5859375 C82.66299945 33.01226368 82.64200236 34.43858409 82.62062073 35.86489868 C82.56565556 39.6032034 82.51613457 43.34156085 82.46777344 47.07995605 C82.41737076 50.90100753 82.36178305 54.72198326 82.30664062 58.54296875 C82.19937206 66.02858153 82.09785878 73.51425767 82 81 C80.55771518 81.05469933 79.11483202 81.09377748 77.671875 81.1262207 C76.8684668 81.14965042 76.06505859 81.17308014 75.23730469 81.19721985 C73 81 73 81 70.25 78.98046875 C69.5075 78.05878906 68.765 77.13710938 68 76.1875 C67.16210938 75.176875 66.32421875 74.16625 65.4609375 73.125 C64.64882813 72.09375 63.83671875 71.0625 63 70 C61.54256942 68.22842361 60.08425641 66.45757275 58.625 64.6875 C57.89539063 63.78515625 57.16578125 62.8828125 56.4140625 61.953125 C49.51716292 53.51614105 42.34249516 45.31038275 35.0234375 37.23828125 C29.91109837 31.58312619 24.95713487 25.79091301 20 20 C19.8970604 32.02651254 19.88975003 44.04354858 20.375 56.0625 C20.40585693 56.95855957 20.43671387 57.85461914 20.46850586 58.77783203 C20.6986791 63.81484566 21.19182029 68.27044151 23 73 C25.91765 74.9451 27.62537285 75.45276317 31 76 C31 77.65 31 79.3 31 81 C30.39414062 80.9278125 29.78828125 80.855625 29.1640625 80.78125 C19.62480338 79.72459361 10.52601366 79.86498561 1 81 C1 79.35 1 77.7 1 76 C1.928125 75.773125 2.85625 75.54625 3.8125 75.3125 C7.0439017 74.25732276 7.0439017 74.25732276 8.8125 71.9375 C11.57101275 65.11381056 11.15863171 57.29639991 11.16796875 50.03125 C11.17129715 49.11089966 11.17462555 48.19054932 11.17805481 47.24230957 C11.18308456 45.30949397 11.18546437 43.3766698 11.18530273 41.44384766 C11.18749404 38.50799153 11.20570522 35.57250887 11.22460938 32.63671875 C11.22754329 30.7473971 11.2295281 28.85807369 11.23046875 26.96875 C11.23765427 26.10286255 11.24483978 25.2369751 11.25224304 24.34484863 C11.33402436 14.49284697 11.33402436 14.49284697 7.1875 6 C4.79265383 4.90521318 2.60395735 4.36166074 0 4 C0 2.68 0 1.36 0 0 Z " fill="#BD973F" transform="translate(494,642)"/>
<path d="M0 0 C3.66582607 -0.20521049 7.3301594 -0.32825201 11 -0.4375 C12.02996094 -0.49615234 13.05992187 -0.55480469 14.12109375 -0.61523438 C19.67109595 -0.73896054 23.18151582 -0.47867192 27.48828125 3.21484375 C28.69240179 4.44458718 29.86731502 5.70416055 31 7 C31.75667969 7.845625 32.51335937 8.69125 33.29296875 9.5625 C33.91816406 10.366875 34.54335938 11.17125 35.1875 12 C43.31249063 22.19826411 51.96879786 31.94796888 60.77734375 41.55859375 C63.40738938 44.44748394 65.97619385 47.3851683 68.52734375 50.34375 C69.96374707 51.95922747 71.46564018 53.47814493 73 55 C73.04970314 49.59229854 73.08586241 44.1847322 73.10986328 38.77685547 C73.11987648 36.93991782 73.13349102 35.10299593 73.15087891 33.26611328 C73.17533422 30.61486911 73.18653013 27.963837 73.1953125 25.3125 C73.20563507 24.50071289 73.21595764 23.68892578 73.22659302 22.85253906 C73.2277032 17.1186558 73.00083045 10.95360686 69.6875 6.0625 C67.51565784 4.69504383 65.5249602 4.34121084 63 4 C63 2.68 63 1.36 63 0 C72.57 0 82.14 0 92 0 C92 1.32 92 2.64 92 4 C91.236875 4.226875 90.47375 4.45375 89.6875 4.6875 C86.34471899 6.32002096 85.52726099 7.64002581 84 11 C83.1373944 15.21483901 82.85411344 19.25979973 82.79467773 23.55615234 C82.77473251 24.83702728 82.75478729 26.11790222 82.73423767 27.43759155 C82.71725854 28.82037234 82.70037955 30.20315435 82.68359375 31.5859375 C82.66299945 33.01226368 82.64200236 34.43858409 82.62062073 35.86489868 C82.56565556 39.6032034 82.51613457 43.34156085 82.46777344 47.07995605 C82.41737076 50.90100753 82.36178305 54.72198326 82.30664062 58.54296875 C82.19937206 66.02858153 82.09785878 73.51425767 82 81 C80.55771518 81.05469933 79.11483202 81.09377748 77.671875 81.1262207 C76.8684668 81.14965042 76.06505859 81.17308014 75.23730469 81.19721985 C73 81 73 81 70.25 78.98046875 C69.5075 78.05878906 68.765 77.13710938 68 76.1875 C67.16210938 75.176875 66.32421875 74.16625 65.4609375 73.125 C64.64882813 72.09375 63.83671875 71.0625 63 70 C61.54256942 68.22842361 60.08425641 66.45757275 58.625 64.6875 C57.89539063 63.78515625 57.16578125 62.8828125 56.4140625 61.953125 C49.51716292 53.51614105 42.34249516 45.31038275 35.0234375 37.23828125 C29.91109837 31.58312619 24.95713487 25.79091301 20 20 C19.8970604 32.02651254 19.88975003 44.04354858 20.375 56.0625 C20.40585693 56.95855957 20.43671387 57.85461914 20.46850586 58.77783203 C20.6986791 63.81484566 21.19182029 68.27044151 23 73 C25.91765 74.9451 27.62537285 75.45276317 31 76 C31 77.65 31 79.3 31 81 C30.39414063 80.9278125 29.78828125 80.855625 29.1640625 80.78125 C19.62480338 79.72459361 10.52601366 79.86498561 1 81 C1 79.35 1 77.7 1 76 C1.928125 75.773125 2.85625 75.54625 3.8125 75.3125 C7.0439017 74.25732276 7.0439017 74.25732276 8.8125 71.9375 C11.57101275 65.11381056 11.15863171 57.29639991 11.16796875 50.03125 C11.17129715 49.11089966 11.17462555 48.19054932 11.17805481 47.24230957 C11.18308456 45.30949397 11.18546437 43.3766698 11.18530273 41.44384766 C11.18749404 38.50799153 11.20570522 35.57250887 11.22460938 32.63671875 C11.22754329 30.7473971 11.2295281 28.85807369 11.23046875 26.96875 C11.23765427 26.10286255 11.24483978 25.2369751 11.25224304 24.34484863 C11.33402436 14.49284697 11.33402436 14.49284697 7.1875 6 C4.79265383 4.90521318 2.60395735 4.36166074 0 4 C0 2.68 0 1.36 0 0 Z " fill="#BD973F" transform="translate(225,642)"/>
<path d="M0 0 C0.81597656 0.00515625 1.63195312 0.0103125 2.47265625 0.015625 C7.2364563 0.07679739 11.78055635 0.56576839 16.5 1.25 C18.84260643 0.9897104 21.1817571 0.67579972 23.5 0.25 C23.17 1.466875 22.84 2.68375 22.5 3.9375 C21.12111435 10.0162494 21.32754634 16.05124915 21.5 22.25 C19.85 22.25 18.2 22.25 16.5 22.25 C16.231875 21.033125 15.96375 19.81625 15.6875 18.5625 C14.51411743 13.95045461 13.24174782 10.50979308 9.26953125 7.63671875 C6.09943602 6.04943552 4.0267074 5.84800989 0.5 5.875 C-0.510625 5.86726562 -1.52125 5.85953125 -2.5625 5.8515625 C-5.89671282 6.30380945 -7.78470398 7.29883153 -10.5 9.25 C-13.06632517 12.67176689 -12.86435051 16.09640421 -12.5 20.25 C-10.41764818 24.71720745 -7.88043078 26.63302387 -3.6875 29.125 C-3.12216553 29.46378174 -2.55683105 29.80256348 -1.97436523 30.15161133 C3.29886452 33.25678889 8.76671875 35.92379798 14.30859375 38.51171875 C19.85848964 41.53461186 24.1744776 45.03276745 26.8046875 50.87890625 C28.59348123 56.97889385 28.55248725 63.69405833 26 69.5625 C21.77794505 76.69836752 15.42781431 81.15518091 7.5 83.25 C4.42285047 83.64371508 1.41145456 83.6782717 -1.6875 83.625 C-2.92173706 83.61629883 -2.92173706 83.61629883 -4.1809082 83.60742188 C-11.25061171 83.45868749 -17.71572907 82.2962433 -24.5 80.25 C-24.995 81.24 -24.995 81.24 -25.5 82.25 C-26.82 81.59 -28.14 80.93 -29.5 80.25 C-29.149375 79.033125 -28.79875 77.81625 -28.4375 76.5625 C-27.20949183 71.21554776 -27.71339772 66.28815127 -28.30859375 60.875 C-28.37175781 60.00875 -28.43492188 59.1425 -28.5 58.25 C-27.5 57.25 -27.5 57.25 -24.9375 57.1875 C-24.133125 57.208125 -23.32875 57.22875 -22.5 57.25 C-22.40203125 57.81847656 -22.3040625 58.38695312 -22.203125 58.97265625 C-20.85287025 65.94509241 -19.21484155 70.99725914 -13.5625 75.6875 C-8.27834679 78.32957661 -2.22402492 77.99309321 3.5 77.25 C7.31542434 75.79616731 9.22787131 73.65819303 11.5 70.25 C11.89183567 67.90948669 11.89183567 67.90948669 11.875 65.375 C11.91753906 64.11042969 11.91753906 64.11042969 11.9609375 62.8203125 C11.32356975 59.26617707 10.06339199 57.78882274 7.5 55.25 C5.09638741 53.73634848 2.58001117 52.55640079 0 51.375 C-1.43495204 50.68510977 -2.86853549 49.99236616 -4.30078125 49.296875 C-5.00928223 48.95462891 -5.7177832 48.61238281 -6.44775391 48.25976562 C-22.64883771 40.28835442 -22.64883771 40.28835442 -26.59375 31.93359375 C-28.63264589 25.89600118 -28.56381915 18.72504136 -25.9375 12.875 C-20.0862803 2.96501171 -10.97071796 -0.27730093 0 0 Z " fill="#BD973F" transform="translate(93.5,639.75)"/>
<path d="M0 0 C6.53202772 4.0558342 11.02502887 9.88527535 13.06640625 17.27734375 C14.65470987 25.41918844 12.54034282 31.41931436 8.9375 38.625 C4.25407815 44.14903603 -2.28930702 47.88161037 -9.5078125 48.73828125 C-17.00508869 49.00110089 -22.93968074 46.63619156 -29.3125 42.8125 C-34.65207684 37.16780449 -37.15957139 30.92557188 -37.75 23.25 C-37.16825875 14.52388128 -34.01090927 8.35057365 -27.5 2.5 C-20.31692105 -3.33522432 -8.29925986 -3.63092619 0 0 Z " fill="#BD973F" transform="translate(256.5,42.5)"/>
<path d="M0 0 C19.47 0 38.94 0 59 0 C60 4 60 4 59 6 C58.92907158 8.2072923 58.91584975 10.41667452 58.9375 12.625 C58.94652344 13.81351563 58.95554687 15.00203125 58.96484375 16.2265625 C58.97644531 17.14179687 58.98804688 18.05703125 59 19 C57.68 19 56.36 19 55 19 C54.01 15.37 53.02 11.74 52 8 C48.78225211 7.19556303 46.27581884 6.82274837 43.015625 6.68359375 C41.75153809 6.62643188 41.75153809 6.62643188 40.46191406 6.56811523 C39.40198242 6.52501221 38.34205078 6.48190918 37.25 6.4375 C32.17625 6.2209375 32.17625 6.2209375 27 6 C27 16.23 27 26.46 27 37 C31.8571875 36.5978125 31.8571875 36.5978125 36.8125 36.1875 C37.82932861 36.11039795 38.84615723 36.0332959 39.89379883 35.95385742 C40.69841553 35.88013916 41.50303223 35.8064209 42.33203125 35.73046875 C43.15421143 35.66239014 43.9763916 35.59431152 44.82348633 35.52416992 C47.41264368 34.900623 48.34833937 34.05275554 50 32 C50.33 31.34 50.66 30.68 51 30 C52.65 30 54.3 30 56 30 C55.91621094 30.76183594 55.83242188 31.52367187 55.74609375 32.30859375 C55.10881725 38.77009348 55.03678972 44.57859811 56 51 C54.35 51 52.7 51 51 51 C50.71125 50.030625 50.4225 49.06125 50.125 48.0625 C49.35785318 44.89335797 49.35785318 44.89335797 47 44 C45.4804236 43.84876169 43.95527498 43.75118307 42.4296875 43.68359375 C41.08583984 43.62075195 41.08583984 43.62075195 39.71484375 43.55664062 C38.77769531 43.51732422 37.84054687 43.47800781 36.875 43.4375 C35.45767578 43.37272461 35.45767578 43.37272461 34.01171875 43.30664062 C31.67462908 43.20040928 29.3374317 43.09836824 27 43 C27.08142773 46.85499569 27.19422354 50.70847275 27.3125 54.5625 C27.33505859 55.64853516 27.35761719 56.73457031 27.38085938 57.85351562 C27.58228964 63.87811171 27.81579666 68.78948545 31 74 C32.9754703 75.23821423 32.9754703 75.23821423 35.1875 75.4375 C37.0746875 75.7159375 37.0746875 75.7159375 39 76 C39 77.65 39 79.3 39 81 C38.14019531 80.9278125 37.28039062 80.855625 36.39453125 80.78125 C24.13682531 79.81881289 12.23679019 79.76529685 0 81 C0 79.35 0 77.7 0 76 C3.96 75.01 3.96 75.01 8 74 C10.39807633 63.66751395 10.30617642 53.39469471 10.26074219 42.84521484 C10.24999808 39.87446806 10.26069811 36.90432248 10.2734375 33.93359375 C10.27211613 32.01562369 10.2695542 30.09765399 10.265625 28.1796875 C10.26967346 27.30649872 10.27372192 26.43330994 10.27789307 25.53366089 C10.234231 19.70616943 10.11722371 13.48860457 8 8 C5.44580991 5.70298394 3.3803141 4.60362752 0 4 C0 2.68 0 1.36 0 0 Z " fill="#BD973F" transform="translate(591,642)"/>
<path d="M0 0 C1.65 0.33 3.3 0.66 5 1 C5 1.66 5 2.32 5 3 C12.52562738 3.02545425 20.05124356 3.04291059 27.5769043 3.05493164 C30.13452571 3.05994563 32.69214427 3.06675848 35.24975586 3.07543945 C38.93604232 3.08763382 42.62229072 3.09325779 46.30859375 3.09765625 C47.44332626 3.10281754 48.57805878 3.10797882 49.74717712 3.11329651 C55.9145272 3.11372765 61.89363608 2.90137984 68 2 C68.33 1.67 68.66 1.34 69 1 C70.66617115 0.95936168 72.33388095 0.957279 74 1 C73.97679687 1.57105469 73.95359375 2.14210938 73.9296875 2.73046875 C73.7682553 9.98338677 74.74774811 16.86663653 76 24 C74.35 24 72.7 24 71 24 C70.75765625 23.38511719 70.5153125 22.77023437 70.265625 22.13671875 C67.91482716 16.02191993 67.91482716 16.02191993 63 12 C59.30894157 10.83576428 55.59651964 10.68681146 51.75 10.4375 C50.48671875 10.35371094 49.2234375 10.26992188 47.921875 10.18359375 C46.95765625 10.12300781 45.9934375 10.06242188 45 10 C45.06137404 17.83275012 45.13859641 25.66517247 45.23571491 33.49755192 C45.28032686 37.13498251 45.31960258 40.77230347 45.34643555 44.40991211 C45.37256097 47.92442294 45.413027 51.43850981 45.46318626 54.95275688 C45.48784128 56.93724323 45.49787588 58.92189394 45.50764465 60.9065094 C45.61113367 67.28884124 45.70381025 72.43641901 49 78 C50.9754703 79.23821423 50.9754703 79.23821423 53.1875 79.4375 C55.0746875 79.7159375 55.0746875 79.7159375 57 80 C57 81.65 57 83.3 57 85 C56.12859375 84.9278125 55.2571875 84.855625 54.359375 84.78125 C41.42856946 83.77365476 28.9075659 84.01253594 16 85 C16 83.35 16 81.7 16 80 C16.93972656 79.83564453 16.93972656 79.83564453 17.8984375 79.66796875 C19.12433594 79.43013672 19.12433594 79.43013672 20.375 79.1875 C21.18710937 79.03667969 21.99921875 78.88585937 22.8359375 78.73046875 C25.35820641 78.12455058 25.35820641 78.12455058 27 75 C27.98290956 71.2945689 28.1489901 67.74710024 28.20532227 63.92456055 C28.22526749 62.72369308 28.24521271 61.52282562 28.26576233 60.28556824 C28.28247482 58.99894791 28.29918732 57.71232758 28.31640625 56.38671875 C28.33699635 55.04864388 28.35799335 53.71057521 28.37937927 52.37251282 C28.43438775 48.86271206 28.48388994 45.35285468 28.53222656 41.84295654 C28.58259728 38.25658165 28.6382018 34.67028827 28.69335938 31.08398438 C28.80068103 24.0560604 28.90218293 17.02806321 29 10 C26.45679484 10.08759258 23.91683067 10.19453413 21.375 10.3125 C20.66214844 10.33505859 19.94929687 10.35761719 19.21484375 10.38085938 C14.49737201 10.61889694 11.08482033 11.41233101 7 14 C5.01428379 17.21822972 3.71404964 20.28694189 3 24 C1.35 24 -0.3 24 -2 24 C-1.7834375 22.40671875 -1.7834375 22.40671875 -1.5625 20.78125 C-1.37473054 19.3542021 -1.18724581 17.92711671 -1 16.5 C-0.85691406 15.45585938 -0.85691406 15.45585938 -0.7109375 14.390625 C-0.0838378 9.55299871 0.08789528 4.87818804 0 0 Z " fill="#BD973F" transform="translate(831,638)"/>
<path d="M0 0 C1.65 0 3.3 0 5 0 C5.25198654 0.64178192 5.50397308 1.28356384 5.76359558 1.9447937 C8.15616612 8.03598288 10.55321276 14.12538966 12.95511913 20.21290398 C14.18937464 23.34151281 15.42197754 26.47075044 16.65063477 29.6015625 C18.06876445 33.21265401 19.49281416 36.8213636 20.91796875 40.4296875 C21.56828316 42.09123367 21.56828316 42.09123367 22.23173523 43.78634644 C26.25901376 55.58870336 26.25901376 55.58870336 33.6875 65.0625 C34.8321875 65.5265625 34.8321875 65.5265625 36 66 C36.66 66.33 37.32 66.66 38 67 C38 67.66 38 68.32 38 69 C37.04738281 68.91621094 36.09476563 68.83242188 35.11328125 68.74609375 C33.85902344 68.64425781 32.60476563 68.54242187 31.3125 68.4375 C30.07113281 68.33308594 28.82976562 68.22867188 27.55078125 68.12109375 C24.40231467 68.0137203 22.0377607 68.31144091 19 69 C17.39696373 69.06371368 15.79162328 69.08644214 14.1875 69.0625 C13.39730469 69.05347656 12.60710937 69.04445313 11.79296875 69.03515625 C11.20128906 69.02355469 10.60960937 69.01195312 10 69 C10 68.34 10 67.68 10 67 C11.98 66.34 13.96 65.68 16 65 C16.28890304 59.43139384 15.38891583 55.31820381 13.5 50.1875 C11 43.19425676 11 43.19425676 11 41 C3.41 41 -4.18 41 -12 41 C-12.33 42.65 -12.66 44.3 -13 46 C-13.66676677 47.96548919 -14.35544891 49.92364036 -15.0625 51.875 C-16.65212752 56.52336929 -17.44339019 60.12270792 -17 65 C-15.35 65.66 -13.7 66.32 -12 67 C-12 67.66 -12 68.32 -12 69 C-13.21236328 68.87431641 -13.21236328 68.87431641 -14.44921875 68.74609375 C-15.51785156 68.64425781 -16.58648438 68.54242187 -17.6875 68.4375 C-18.74324219 68.33308594 -19.79898438 68.22867188 -20.88671875 68.12109375 C-23.86106915 68.00540383 -26.10760707 68.39686784 -29 69 C-31.45694158 69.09261199 -33.91631864 69.12998718 -36.375 69.125 C-37.64085937 69.12757813 -38.90671875 69.13015625 -40.2109375 69.1328125 C-44 69 -44 69 -47.54296875 68.46484375 C-51.15280363 67.97945352 -54.31701874 68.10157906 -57.9375 68.4375 C-59.08089844 68.53933594 -60.22429688 68.64117188 -61.40234375 68.74609375 C-62.25957031 68.82988281 -63.11679687 68.91367187 -64 69 C-64 68.34 -64 67.68 -64 67 C-63.05125 66.62875 -62.1025 66.2575 -61.125 65.875 C-57.87156805 64.31367646 -57.87156805 64.31367646 -56.82128906 61.53515625 C-55.72893796 56.83324066 -55.71400754 52.37408355 -55.734375 47.5625 C-55.73246155 46.56420166 -55.7305481 45.56590332 -55.72857666 44.53735352 C-55.72721945 42.43277737 -55.73088338 40.32819273 -55.73925781 38.22363281 C-55.74996376 35.01087556 -55.73934659 31.79867745 -55.7265625 28.5859375 C-55.72788418 26.53645711 -55.73044674 24.48697706 -55.734375 22.4375 C-55.73032654 21.48109619 -55.72627808 20.52469238 -55.72210693 19.53930664 C-55.75602928 14.69046965 -55.86573432 10.46303776 -58 6 C-61.0005907 4.08160141 -61.0005907 4.08160141 -64 3 C-64 2.34 -64 1.68 -64 1 C-62.97519531 1.08378906 -61.95039062 1.16757812 -60.89453125 1.25390625 C-59.53388121 1.35712798 -58.17320254 1.45997265 -56.8125 1.5625 C-56.13896484 1.61857422 -55.46542969 1.67464844 -54.77148438 1.73242188 C-50.95538636 2.01164856 -47.71456079 1.8650347 -44 1 C-42.56371543 0.93733488 -41.1249445 0.91313653 -39.6875 0.9375 C-37.8621875 0.9684375 -37.8621875 0.9684375 -36 1 C-36 1.66 -36 2.32 -36 3 C-37.134375 3.433125 -38.26875 3.86625 -39.4375 4.3125 C-40.613125 4.869375 -41.78875 5.42625 -43 6 C-43.98374392 8.95123176 -44.12662687 10.86673662 -44.12939453 13.94287109 C-44.13254669 14.94756439 -44.13569885 15.95225769 -44.13894653 16.98739624 C-44.1369223 18.07178986 -44.13489807 19.15618347 -44.1328125 20.2734375 C-44.13376923 21.38933258 -44.13472595 22.50522766 -44.13571167 23.65493774 C-44.1363926 26.01702938 -44.13454439 28.37912289 -44.13037109 30.74121094 C-44.12503169 34.35355857 -44.13031389 37.9657813 -44.13671875 41.578125 C-44.13605776 43.87239611 -44.13477615 46.16666714 -44.1328125 48.4609375 C-44.13483673 49.54128265 -44.13686096 50.62162781 -44.13894653 51.73471069 C-44.13579437 52.74570831 -44.13264221 53.75670593 -44.12939453 54.79833984 C-44.12859894 55.68419769 -44.12780334 56.57005554 -44.12698364 57.48275757 C-43.99623068 60.07472051 -43.57184409 62.47170342 -43 65 C-35.69265387 66.40093758 -35.69265387 66.40093758 -29 64 C-25.06358134 58.65042282 -22.26496872 52.66116264 -19.5625 46.625 C-19.1514502 45.71540527 -18.74040039 44.80581055 -18.31689453 43.86865234 C-11.85758875 29.3995242 -5.96480489 14.67802226 0 0 Z M-1 14 C-2.50548369 17.78951244 -4.00345314 21.58195031 -5.5 25.375 C-6.14388672 26.99535156 -6.14388672 26.99535156 -6.80078125 28.6484375 C-7.20683594 29.6796875 -7.61289062 30.7109375 -8.03125 31.7734375 C-8.40830078 32.72653809 -8.78535156 33.67963867 -9.17382812 34.66162109 C-10.11104302 36.9009545 -10.11104302 36.9009545 -10 39 C-3.73 39 2.54 39 9 39 C8.06581395 33.39488371 6.61880509 28.90992862 4.5625 23.6875 C4.24990234 22.86443359 3.93730469 22.04136719 3.61523438 21.19335938 C3.31037109 20.41154297 3.00550781 19.62972656 2.69140625 18.82421875 C2.41498291 18.11354248 2.13855957 17.40286621 1.85375977 16.6706543 C1.11009265 14.80798512 1.11009265 14.80798512 -1 14 Z " fill="#BD973F" transform="translate(803,533)"/>
<path d="M0 0 C12.54 0 25.08 0 38 0 C38 1.32 38 2.64 38 4 C36.906875 4.185625 35.81375 4.37125 34.6875 4.5625 C30.83267641 5.63510384 30.83267641 5.63510384 29.29443359 8.80615234 C27.23814699 14.19536764 27.57155783 19.85086377 27.6015625 25.5390625 C27.59869232 26.73808197 27.59582214 27.93710144 27.59286499 29.17245483 C27.59082916 31.69895909 27.59632521 34.22547928 27.60888672 36.75195312 C27.6249744 40.61884716 27.60900609 44.48470042 27.58984375 48.3515625 C27.59182571 50.80989814 27.59566842 53.26823313 27.6015625 55.7265625 C27.59548981 56.88185455 27.58941711 58.03714661 27.5831604 59.22744751 C27.59261688 60.30561737 27.60207336 61.38378723 27.61181641 62.49462891 C27.61420319 63.43948151 27.61658997 64.38433411 27.61904907 65.3578186 C28.07540913 68.52301906 29.12627071 70.4287581 31 73 C32.98386046 73.72914333 32.98386046 73.72914333 35.203125 73.59375 C36.42708984 73.58988281 36.42708984 73.58988281 37.67578125 73.5859375 C38.52527344 73.55757812 39.37476563 73.52921875 40.25 73.5 C41.08402344 73.50257813 41.91804687 73.50515625 42.77734375 73.5078125 C48.21821107 73.42239857 52.25201527 72.72089087 57 70 C58.84740324 67.8184091 58.84740324 67.8184091 59.9375 65.3125 C60.33839844 64.50425781 60.73929688 63.69601562 61.15234375 62.86328125 C61.43207031 62.24839844 61.71179688 61.63351562 62 61 C63.32 61 64.64 61 66 61 C65.76286201 63.13424192 65.52526339 65.26843382 65.28515625 67.40234375 C65.0963033 69.12271648 64.91648861 70.84410739 64.74609375 72.56640625 C64.62427734 73.77103516 64.62427734 73.77103516 64.5 75 C64.4278125 75.7425 64.355625 76.485 64.28125 77.25 C64 79 64 79 63 80 C60.22147897 80.27510109 57.47383309 80.47852381 54.6875 80.625 C53.84243896 80.67003662 52.99737793 80.71507324 52.12670898 80.76147461 C43.43505274 81.14661387 34.84666179 80.64387852 26.17236328 80.11865234 C17.38565594 79.63873104 8.74647068 80.1315561 0 81 C0 79.35 0 77.7 0 76 C1.11375 75.7525 2.2275 75.505 3.375 75.25 C6.92259117 74.37220844 6.92259117 74.37220844 8.375 72.375 C10.0725341 65.92437043 10.15891837 59.33326357 10.16796875 52.70703125 C10.17129715 51.83914474 10.17462555 50.97125824 10.17805481 50.07707214 C10.18309015 48.24922205 10.18546419 46.42136288 10.18530273 44.59350586 C10.18748019 41.83756856 10.20564756 39.08203811 10.22460938 36.32617188 C10.62675581 21.96924921 10.62675581 21.96924921 8 8 C5.47244793 5.65915479 3.38440656 4.60435831 0 4 C0 2.68 0 1.36 0 0 Z " fill="#BD973F" transform="translate(956,642)"/>
<path d="M0 0 C4.03282724 -0.07075136 7.6930124 -0.04682862 11.6875 0.5625 C14.94845386 0.99319202 16.83488932 0.66118424 20 0 C34.91789062 -1.10905155 49.50058271 -0.87159083 62.0625 8.2265625 C69.03128861 14.60525207 72.48776781 22.96290542 73.1640625 32.25390625 C73.51706838 42.50712247 70.62445488 51.12022604 64 59 C56.47673598 66.71220444 46.34324066 69.12715806 35.86303711 69.36938477 C28.82966584 69.38525833 22.08474549 69.04880466 15.2265625 67.33984375 C12.56999683 66.93436794 10.60837523 67.40849444 8 68 C6.56371543 68.06266512 5.1249445 68.08686347 3.6875 68.0625 C1.8621875 68.0315625 1.8621875 68.0315625 0 68 C0 67.34 0 66.68 0 66 C1.134375 65.566875 2.26875 65.13375 3.4375 64.6875 C4.613125 64.130625 5.78875 63.57375 7 63 C7.98374392 60.04876824 8.12662687 58.13326338 8.12939453 55.05712891 C8.13254669 54.05243561 8.13569885 53.04774231 8.13894653 52.01260376 C8.1369223 50.92821014 8.13489807 49.84381653 8.1328125 48.7265625 C8.13376923 47.61066742 8.13472595 46.49477234 8.13571167 45.34506226 C8.1363926 42.98297062 8.13454439 40.62087711 8.13037109 38.25878906 C8.12503169 34.64644143 8.13031389 31.0342187 8.13671875 27.421875 C8.13605776 25.12760389 8.13477615 22.83333286 8.1328125 20.5390625 C8.13584885 18.91854477 8.13584885 18.91854477 8.13894653 17.26528931 C8.13579437 16.25429169 8.13264221 15.24329407 8.12939453 14.20166016 C8.12859894 13.31580231 8.12780334 12.42994446 8.12698364 11.51724243 C7.99623068 8.92527949 7.57184409 6.52829658 7 4 C4.69 3.34 2.38 2.68 0 2 C0 1.34 0 0.68 0 0 Z M20 3 C18.98980587 6.03058238 18.87328621 8.06487043 18.87060547 11.23413086 C18.86745331 12.30211411 18.86430115 13.37009735 18.86105347 14.47044373 C18.8630777 15.62359573 18.86510193 16.77674774 18.8671875 17.96484375 C18.86623077 19.14969864 18.86527405 20.33455353 18.86428833 21.55531311 C18.86360736 24.06283623 18.86545586 26.57036112 18.86962891 29.07788086 C18.87497356 32.91849732 18.8696835 36.75899658 18.86328125 40.59960938 C18.86394214 43.03385443 18.86522352 45.4680994 18.8671875 47.90234375 C18.86516327 49.05347153 18.86313904 50.2045993 18.86105347 51.39060974 C18.86420563 52.46174515 18.86735779 53.53288055 18.87060547 54.63647461 C18.87140106 55.57784775 18.87219666 56.51922089 18.87301636 57.48912048 C18.99307047 59.86298063 19.15670971 61.7785174 20 64 C26.09997813 68.06665209 33.42274412 67.58697353 40.4375 66.375 C47.27525948 64.67441733 52.99136982 61.00369247 56.9375 55.125 C62.23885725 45.38147099 62.65604879 33.20947377 59.875 22.5625 C57.48769987 15.79472935 53.05417436 9.89196923 47 6 C38.36710756 2.08877118 29.30570332 0.59852818 20 3 Z " fill="#BD973F" transform="translate(868,534)"/>
<path d="M0 0 C14.75467445 -1.20720064 14.75467445 -1.20720064 19.59375 1.39453125 C21.65667854 3.47014173 23.31278969 5.60915489 25 8 C26.4506269 9.77715177 27.90939097 11.54768359 29.375 13.3125 C30.12265625 14.24320313 30.8703125 15.17390625 31.640625 16.1328125 C34.84707075 20.0293873 38.24581972 23.73110358 41.66015625 27.4453125 C43.65834848 29.62697815 45.62148889 31.83011309 47.5625 34.0625 C54.59833303 42.20063137 54.59833303 42.20063137 62 50 C62.04965427 44.71640371 62.08583957 39.43294504 62.10986328 34.14916992 C62.1198846 32.35389844 62.13350533 30.55864312 62.15087891 28.76342773 C62.17529809 26.17427565 62.18652198 23.58534049 62.1953125 20.99609375 C62.20563507 20.20101913 62.21595764 19.40594452 62.22659302 18.58677673 C62.22756687 13.68558673 61.77720802 9.59484922 60 5 C57.01565163 3.00574976 57.01565163 3.00574976 54 2 C54 1.34 54 0.68 54 0 C55.12535156 0.12568359 55.12535156 0.12568359 56.2734375 0.25390625 C63.02692476 0.92585272 69.28095649 0.96623413 76 0 C74.79180633 3.624581 74.19658087 3.40170957 71 5 C68.28400516 13.14798453 68.82079426 22.49921015 68.68359375 31.01171875 C68.6524221 32.65307549 68.6524221 32.65307549 68.62062073 34.32759094 C68.55587939 37.78083773 68.49659549 41.23415245 68.4375 44.6875 C68.39424283 47.04623064 68.35062641 49.40495471 68.30664062 51.76367188 C68.2002768 57.50904535 68.09837866 63.25448453 68 69 C63.41366935 68.26084931 61.79045663 67.1947213 58.75 63.625 C57.58017578 62.26568359 57.58017578 62.26568359 56.38671875 60.87890625 C53.34085381 57.20492513 50.32651104 53.50651364 47.32421875 49.796875 C44.11640159 45.93671183 40.73594839 42.24906327 37.33984375 38.5546875 C35.34165152 36.37302185 33.37851111 34.16988691 31.4375 31.9375 C23.92495862 23.27735992 23.92495862 23.27735992 16 15 C15.9751034 20.10457004 15.95704765 25.20910397 15.94506836 30.3137207 C15.94006925 32.04679989 15.93326776 33.77987493 15.92456055 35.51293945 C15.91229973 38.01775138 15.90672734 40.52250708 15.90234375 43.02734375 C15.89718246 43.79022202 15.89202118 44.55310028 15.88670349 45.33909607 C15.8863099 49.19570058 16.00891743 53.02843861 16.31860352 56.87329102 C16.37573013 57.59283463 16.43285675 58.31237823 16.49171448 59.0537262 C17.12837322 61.4915533 18.05833715 62.42756315 20 64 C22.59915538 65.19027984 22.59915538 65.19027984 25 66 C25 66.66 25 67.32 25 68 C21.65056393 68.06698872 18.54075013 68.11060798 15.25 67.4375 C10.43890947 66.7898532 5.80307927 67.44448371 1 68 C1 67.34 1 66.68 1 66 C1.94875 65.62875 2.8975 65.2575 3.875 64.875 C7.12231238 63.31499412 7.12231238 63.31499412 8.17651367 60.56469727 C9.29838336 55.70836188 9.30529536 51.05903272 9.30078125 46.08984375 C9.30506638 45.04478165 9.3093515 43.99971954 9.31376648 42.92298889 C9.31949444 40.72006961 9.32002138 38.51713142 9.31567383 36.31420898 C9.31250749 32.94547368 9.33601488 29.57761164 9.36132812 26.20898438 C9.36360064 24.06510527 9.36430484 21.92122381 9.36328125 19.77734375 C9.372491 18.7720311 9.38170074 17.76671844 9.39118958 16.73094177 C9.40187202 9.84064459 9.40187202 9.84064459 6 4 C2.92438754 2.64019119 2.92438754 2.64019119 0 2 C0 1.34 0 0.68 0 0 Z " fill="#BD973F" transform="translate(587,534)"/>
<path d="M0 0 C14.75467445 -1.20720064 14.75467445 -1.20720064 19.59375 1.39453125 C21.65667854 3.47014173 23.31278969 5.60915489 25 8 C26.4506269 9.77715177 27.90939097 11.54768359 29.375 13.3125 C30.12265625 14.24320313 30.8703125 15.17390625 31.640625 16.1328125 C34.84707075 20.0293873 38.24581972 23.73110358 41.66015625 27.4453125 C43.65834848 29.62697815 45.62148889 31.83011309 47.5625 34.0625 C54.59833303 42.20063137 54.59833303 42.20063137 62 50 C62.04965427 44.71640371 62.08583957 39.43294504 62.10986328 34.14916992 C62.1198846 32.35389844 62.13350533 30.55864312 62.15087891 28.76342773 C62.17529809 26.17427565 62.18652198 23.58534049 62.1953125 20.99609375 C62.20563507 20.20101913 62.21595764 19.40594452 62.22659302 18.58677673 C62.22756687 13.68558673 61.77720802 9.59484922 60 5 C57.01565163 3.00574976 57.01565163 3.00574976 54 2 C54 1.34 54 0.68 54 0 C55.12535156 0.12568359 55.12535156 0.12568359 56.2734375 0.25390625 C63.02692476 0.92585272 69.28095649 0.96623413 76 0 C74.79180633 3.624581 74.19658087 3.40170957 71 5 C68.28400516 13.14798453 68.82079426 22.49921015 68.68359375 31.01171875 C68.6524221 32.65307549 68.6524221 32.65307549 68.62062073 34.32759094 C68.55587939 37.78083773 68.49659549 41.23415245 68.4375 44.6875 C68.39424283 47.04623064 68.35062641 49.40495471 68.30664062 51.76367188 C68.2002768 57.50904535 68.09837866 63.25448453 68 69 C63.41366935 68.26084931 61.79045663 67.1947213 58.75 63.625 C57.58017578 62.26568359 57.58017578 62.26568359 56.38671875 60.87890625 C53.34085381 57.20492513 50.32651104 53.50651364 47.32421875 49.796875 C44.11640159 45.93671183 40.73594839 42.24906327 37.33984375 38.5546875 C35.34165152 36.37302185 33.37851111 34.16988691 31.4375 31.9375 C23.92495862 23.27735992 23.92495862 23.27735992 16 15 C15.9751034 20.10457004 15.95704765 25.20910397 15.94506836 30.3137207 C15.94006925 32.04679989 15.93326776 33.77987493 15.92456055 35.51293945 C15.91229973 38.01775138 15.90672734 40.52250708 15.90234375 43.02734375 C15.89718246 43.79022202 15.89202118 44.55310028 15.88670349 45.33909607 C15.8863099 49.19570058 16.00891743 53.02843861 16.31860352 56.87329102 C16.37573013 57.59283463 16.43285675 58.31237823 16.49171448 59.0537262 C17.12837322 61.4915533 18.05833715 62.42756315 20 64 C22.59915538 65.19027984 22.59915538 65.19027984 25 66 C25 66.66 25 67.32 25 68 C21.65056393 68.06698872 18.54075013 68.11060798 15.25 67.4375 C10.43890947 66.7898532 5.80307927 67.44448371 1 68 C1 67.34 1 66.68 1 66 C1.94875 65.62875 2.8975 65.2575 3.875 64.875 C7.12231238 63.31499412 7.12231238 63.31499412 8.17651367 60.56469727 C9.29838336 55.70836188 9.30529536 51.05903272 9.30078125 46.08984375 C9.30506638 45.04478165 9.3093515 43.99971954 9.31376648 42.92298889 C9.31949444 40.72006961 9.32002138 38.51713142 9.31567383 36.31420898 C9.31250749 32.94547368 9.33601488 29.57761164 9.36132812 26.20898438 C9.36360064 24.06510527 9.36430484 21.92122381 9.36328125 19.77734375 C9.372491 18.7720311 9.38170074 17.76671844 9.39118958 16.73094177 C9.40187202 9.84064459 9.40187202 9.84064459 6 4 C2.92438754 2.64019119 2.92438754 2.64019119 0 2 C0 1.34 0 0.68 0 0 Z " fill="#BD973F" transform="translate(60,534)"/>
<path d="M0 0 C7.40069686 -0.12543554 7.40069686 -0.12543554 10.6875 0.5625 C12.96802892 1.14931076 12.96802892 1.14931076 15.09765625 0.546875 C23.94258304 -1.11973301 35.36759924 -1.71003194 43.37109375 2.81640625 C48.44151484 6.50066906 49.81983785 10.50401543 50.80859375 16.5078125 C51.21069969 21.7433959 49.71506223 25.01437369 46.6875 29.1875 C44.2553344 31.73278958 41.76586523 33.83641698 39 36 C48.45016488 53.89949348 48.45016488 53.89949348 64.375 65.25 C65.24125 65.4975 66.1075 65.745 67 66 C67 66.66 67 67.32 67 68 C64.79229195 68.08165496 62.58369575 68.13948488 60.375 68.1875 C58.53035156 68.23970703 58.53035156 68.23970703 56.6484375 68.29296875 C50.44603744 67.79491735 46.21888989 64.91537222 41.99609375 60.5703125 C38.70362657 56.33069723 36.13267401 51.65361659 33.55175781 46.95458984 C30.70787431 41.59547974 30.70787431 41.59547974 26 38 C22.34725531 37.27518916 22.34725531 37.27518916 19 37 C19.11035961 40.39647413 19.24087444 43.79188789 19.375 47.1875 C19.4059375 48.14720703 19.436875 49.10691406 19.46875 50.09570312 C19.50742187 51.02705078 19.54609375 51.95839844 19.5859375 52.91796875 C19.63306885 54.19837036 19.63306885 54.19837036 19.68115234 55.50463867 C20.04159202 58.32550694 20.70899494 60.46569507 22 63 C25.01696409 64.84274976 25.01696409 64.84274976 28 66 C28 66.66 28 67.32 28 68 C26.46279297 67.87431641 26.46279297 67.87431641 24.89453125 67.74609375 C23.53388121 67.64287202 22.17320254 67.54002735 20.8125 67.4375 C20.13896484 67.38142578 19.46542969 67.32535156 18.77148438 67.26757812 C14.95538636 66.98835144 11.71456079 67.1349653 8 68 C6.56371543 68.06266512 5.1249445 68.08686347 3.6875 68.0625 C1.8621875 68.0315625 1.8621875 68.0315625 0 68 C0 67.34 0 66.68 0 66 C3.465 65.01 3.465 65.01 7 64 C7.77056994 60.5809813 8.1261624 57.42403189 8.12939453 53.921875 C8.13254669 52.93735352 8.13569885 51.95283203 8.13894653 50.93847656 C8.1369223 49.8862793 8.13489807 48.83408203 8.1328125 47.75 C8.13376923 46.65913086 8.13472595 45.56826172 8.13571167 44.44433594 C8.13639122 42.14127545 8.13455262 39.83821304 8.13037109 37.53515625 C8.12501972 34.01297701 8.13032374 30.49092528 8.13671875 26.96875 C8.13605793 24.72916639 8.13477668 22.48958285 8.1328125 20.25 C8.13483673 19.19780273 8.13686096 18.14560547 8.13894653 17.06152344 C8.13579437 16.07700195 8.13264221 15.09248047 8.12939453 14.078125 C8.12859894 13.21606445 8.12780334 12.35400391 8.12698364 11.46582031 C7.99452957 8.89377303 7.56558989 6.50952225 7 4 C4.69 3.34 2.38 2.68 0 2 C0 1.34 0 0.68 0 0 Z M19 3 C18.91209025 5.29151417 18.89305962 7.58572524 18.90234375 9.87890625 C18.9037587 10.5655687 18.90517365 11.25223114 18.90663147 11.95970154 C18.91224521 14.16067801 18.92479993 16.36155409 18.9375 18.5625 C18.94251324 20.05143083 18.94707645 21.54036324 18.95117188 23.02929688 C18.96221907 26.68623075 18.97949287 30.34310558 19 34 C24.09634774 35.69878258 28.35504347 35.54753135 33.25 33.375 C37.12795826 31.20304276 38.72608389 29.37908661 40 25 C40.65045701 18.76490495 40.76322164 13.2685103 37 8 C32.63950835 3.51736573 29.46183353 2.08345198 23.3125 1.875 C20.1551251 1.61822838 20.1551251 1.61822838 19 3 Z " fill="#BD973F" transform="translate(279,534)"/>
<path d="M0 0 C12.21 0 24.42 0 37 0 C37 1.32 37 2.64 37 4 C35.2421875 4.61848958 33.484375 5.23697917 31.7265625 5.85546875 C29.25058409 7.49678476 28.9139608 9.20228867 28 12 C27.70085105 14.72973684 27.70085105 14.72973684 27.74121094 17.62890625 C27.73490662 18.73355225 27.72860229 19.83819824 27.72210693 20.97631836 C27.7261554 22.1597583 27.73020386 23.34319824 27.734375 24.5625 C27.73246155 25.78654541 27.7305481 27.01059082 27.72857666 28.27172852 C27.72721689 30.85726121 27.73089876 33.44280077 27.73925781 36.02832031 C27.74995992 39.98518209 27.73935509 43.94158984 27.7265625 47.8984375 C27.72788413 50.41145934 27.7304466 52.92448089 27.734375 55.4375 C27.73032654 56.62093994 27.72627808 57.80437988 27.72210693 59.02368164 C27.72841125 60.12832764 27.73471558 61.23297363 27.74121094 62.37109375 C27.74280212 63.33974365 27.74439331 64.30839355 27.74603271 65.30639648 C28.02132006 68.22612281 28.70864091 70.37439776 30 73 C31.68046157 74.21526985 31.68046157 74.21526985 33.625 74.8125 C34.73875 75.204375 35.8525 75.59625 37 76 C37 77.65 37 79.3 37 81 C36.36835937 80.9278125 35.73671875 80.855625 35.0859375 80.78125 C23.32992498 79.56160605 11.74746758 79.79513153 0 81 C0 79.35 0 77.7 0 76 C3.96 75.01 3.96 75.01 8 74 C10.08413619 63.68969757 10.30987998 53.64190015 10.26074219 43.16137695 C10.25000489 40.43873908 10.2607024 37.71675879 10.2734375 34.99414062 C10.67890507 21.27053748 10.67890507 21.27053748 8 8 C5.45746723 5.68408985 3.38179494 4.60389195 0 4 C0 2.68 0 1.36 0 0 Z " fill="#BD973F" transform="translate(912,642)"/>
<path d="M0 0 C12.21 0 24.42 0 37 0 C37 1.32 37 2.64 37 4 C35.2421875 4.61848958 33.484375 5.23697917 31.7265625 5.85546875 C29.25058409 7.49678476 28.9139608 9.20228867 28 12 C27.70085105 14.72973684 27.70085105 14.72973684 27.74121094 17.62890625 C27.73490662 18.73355225 27.72860229 19.83819824 27.72210693 20.97631836 C27.7261554 22.1597583 27.73020386 23.34319824 27.734375 24.5625 C27.73246155 25.78654541 27.7305481 27.01059082 27.72857666 28.27172852 C27.72721689 30.85726121 27.73089876 33.44280077 27.73925781 36.02832031 C27.74995992 39.98518209 27.73935509 43.94158984 27.7265625 47.8984375 C27.72788413 50.41145934 27.7304466 52.92448089 27.734375 55.4375 C27.73032654 56.62093994 27.72627808 57.80437988 27.72210693 59.02368164 C27.72841125 60.12832764 27.73471558 61.23297363 27.74121094 62.37109375 C27.74280212 63.33974365 27.74439331 64.30839355 27.74603271 65.30639648 C28.02132006 68.22612281 28.70864091 70.37439776 30 73 C31.68046157 74.21526985 31.68046157 74.21526985 33.625 74.8125 C34.73875 75.204375 35.8525 75.59625 37 76 C37 77.65 37 79.3 37 81 C36.36835938 80.9278125 35.73671875 80.855625 35.0859375 80.78125 C23.32992498 79.56160605 11.74746758 79.79513153 0 81 C0 79.35 0 77.7 0 76 C3.96 75.01 3.96 75.01 8 74 C10.08413619 63.68969757 10.30987998 53.64190015 10.26074219 43.16137695 C10.25000489 40.43873908 10.2607024 37.71675879 10.2734375 34.99414062 C10.67890507 21.27053748 10.67890507 21.27053748 8 8 C5.45746723 5.68408985 3.38179494 4.60389195 0 4 C0 2.68 0 1.36 0 0 Z " fill="#BD973F" transform="translate(451,642)"/>
<path d="M0 0 C8.24464598 6.66234019 11.74244865 15.46355058 13.06640625 25.77734375 C13.56812939 35.76325265 10.30046718 45.78020613 3.80859375 53.375 C-4.91015202 61.58087837 -14.5011844 63.93272603 -26.20703125 63.61328125 C-35.65528654 63.07747587 -42.32024971 59.32799908 -49.08203125 52.82421875 C-56.93117207 43.73052948 -57.95526179 33.82840543 -57.41601562 22.29541016 C-56.61137716 12.68471362 -51.39582971 5.48036235 -44.25 -0.6875 C-30.28446529 -9.58209385 -13.63319676 -9.19984518 0 0 Z M-39.25 3.3125 C-46.43571735 14.31998391 -47.41448893 26.59684818 -45.125 39.25 C-43.37423746 46.95500682 -40.3611431 52.2013569 -34.8125 57.75 C-28.46116398 61.62276587 -22.3598294 61.91604361 -15.25 60.3125 C-7.88803376 56.63151688 -3.56835764 51.03779216 -0.875 43.375 C2.3864971 31.43901691 2.13267705 18.60704989 -3.25 7.3125 C-7.46246272 0.87265103 -11.75780668 -2.87487258 -19.25 -4.6875 C-26.69055383 -5.61756923 -34.4024332 -2.41394576 -39.25 3.3125 Z " fill="#BD973F" transform="translate(1005.25,539.6875)"/>
<path d="M0 0 C8.24464598 6.66234019 11.74244865 15.46355058 13.06640625 25.77734375 C13.56812939 35.76325265 10.30046718 45.78020613 3.80859375 53.375 C-4.91015202 61.58087837 -14.5011844 63.93272603 -26.20703125 63.61328125 C-35.65528654 63.07747587 -42.32024971 59.32799908 -49.08203125 52.82421875 C-56.93117207 43.73052948 -57.95526179 33.82840543 -57.41601562 22.29541016 C-56.61137716 12.68471362 -51.39582971 5.48036235 -44.25 -0.6875 C-30.28446529 -9.58209385 -13.63319676 -9.19984518 0 0 Z M-39.25 3.3125 C-46.43571735 14.31998391 -47.41448893 26.59684818 -45.125 39.25 C-43.37423746 46.95500682 -40.3611431 52.2013569 -34.8125 57.75 C-28.46116398 61.62276587 -22.3598294 61.91604361 -15.25 60.3125 C-7.88803376 56.63151688 -3.56835764 51.03779216 -0.875 43.375 C2.3864971 31.43901691 2.13267705 18.60704989 -3.25 7.3125 C-7.46246272 0.87265103 -11.75780668 -2.87487258 -19.25 -4.6875 C-26.69055383 -5.61756923 -34.4024332 -2.41394576 -39.25 3.3125 Z " fill="#BD973F" transform="translate(403.25,539.6875)"/>
<path d="M0 0 C3.86390927 -0.06778788 7.37786373 -0.10978875 11.1875 0.5625 C16.84295795 1.21148698 22.35086339 0.55217125 28 0 C28 0.66 28 1.32 28 2 C26.576875 2.495 26.576875 2.495 25.125 3 C21.71678261 4.73237203 21.71678261 4.73237203 20.8203125 8.296875 C19.54222516 14.22121716 19.71000941 20.21808575 19.75 26.25 C19.74226563 27.40113281 19.73453125 28.55226563 19.7265625 29.73828125 C19.52910493 44.89822486 19.52910493 44.89822486 26 58 C31.83734501 62.59535671 36.66576486 63.49723628 44 63 C49.53952262 61.6599631 53.43800314 59.57971025 57 55 C61.66414729 45.7302512 61.18246921 35.56448971 61.1875 25.4375 C61.19974609 24.13619141 61.21199219 22.83488281 61.22460938 21.49414062 C61.22654297 20.23666016 61.22847656 18.97917969 61.23046875 17.68359375 C61.23457764 16.54462646 61.23868652 15.40565918 61.24291992 14.23217773 C60.98512102 10.80202734 60.37811666 8.15026585 59 5 C55.9994093 3.08160141 55.9994093 3.08160141 53 2 C53 1.34 53 0.68 53 0 C54.12535156 0.12568359 54.12535156 0.12568359 55.2734375 0.25390625 C62.02692476 0.92585272 68.28095649 0.96623413 75 0 C75 0.66 75 1.32 75 2 C74.030625 2.433125 73.06125 2.86625 72.0625 3.3125 C68.72268235 4.7014861 68.72268235 4.7014861 68 8 C67.87164516 10.21524929 67.79790057 12.43381521 67.75390625 14.65234375 C67.72091143 16.00065616 67.68770092 17.3489633 67.65429688 18.69726562 C67.60737096 20.80309649 67.56304085 22.90891557 67.52319336 25.01489258 C66.97291306 52.78262936 66.97291306 52.78262936 58.62109375 62.625 C51.24237016 69.38045266 42.6069208 69.66927791 33.140625 69.33984375 C25.61852077 68.86162853 20.22476816 66.67883797 15 61.1875 C8.90130817 53.4424477 8.90471474 43.3799567 8.71875 33.88671875 C8.68099837 32.37695291 8.64323769 30.86718729 8.60546875 29.35742188 C8.5516611 27.00938458 8.49942385 24.66131768 8.44775391 22.31323242 C8.39602638 20.02511992 8.33883478 17.73719015 8.28125 15.44921875 C8.26767456 14.74609055 8.25409912 14.04296234 8.2401123 13.31852722 C8.16280137 10.29103578 7.96492215 7.89476644 7 5 C3.49705129 3.28432339 3.49705129 3.28432339 0 2 C0 1.34 0 0.68 0 0 Z " fill="#BD973F" transform="translate(199,534)"/>
<path d="M0 0 C3.43415256 -0.06868305 6.61695632 -0.07182069 10 0.5625 C12.97244466 1.15162646 12.97244466 1.15162646 15.81640625 0.53125 C21.80543239 -0.40074394 27.89445273 -0.10369539 33.9375 -0.0625 C35.19369141 -0.05798828 36.44988281 -0.05347656 37.74414062 -0.04882812 C40.82947663 -0.03709681 43.91471316 -0.020681 47 0 C47.91585285 3.31803928 47.96907495 5.81670039 47.5625 9.25 C47.46066406 10.14203125 47.35882813 11.0340625 47.25390625 11.953125 C47.17011719 12.62859375 47.08632812 13.3040625 47 14 C46.01 14 45.02 14 44 14 C43.4140625 12.2421875 42.828125 10.484375 42.2421875 8.7265625 C40.29037389 6.01366434 38.20622556 5.76478775 35 5 C32.21033569 4.65668833 29.43209365 4.49724907 26.625 4.375 C22.850625 4.189375 22.850625 4.189375 19 4 C19 12.91 19 21.82 19 31 C21.51625 30.87625 24.0325 30.7525 26.625 30.625 C27.40568848 30.59100098 28.18637695 30.55700195 28.99072266 30.52197266 C33.26746384 30.28202348 37.04278381 29.78987932 41 28 C41.495 26.515 41.495 26.515 42 25 C42.99 25 43.98 25 45 25 C45 29.95 45 34.9 45 40 C44.01 40 43.02 40 42 40 C41.7525 39.360625 41.505 38.72125 41.25 38.0625 C40.21530334 35.85376445 40.21530334 35.85376445 38.17871094 35.39086914 C36.06412498 35.01150427 34.03506653 34.79731413 31.890625 34.68359375 C30.75947266 34.62075195 30.75947266 34.62075195 29.60546875 34.55664062 C28.82816406 34.51732422 28.05085938 34.47800781 27.25 34.4375 C26.06083984 34.37272461 26.06083984 34.37272461 24.84765625 34.30664062 C22.89862185 34.20097009 20.94933252 34.10002034 19 34 C19.10995451 37.9172412 19.24056734 41.83352845 19.375 45.75 C19.4059375 46.86117187 19.436875 47.97234375 19.46875 49.1171875 C19.50742188 50.18710937 19.54609375 51.25703125 19.5859375 52.359375 C19.63306885 53.83615723 19.63306885 53.83615723 19.68115234 55.34277344 C20.00733016 58.06108845 20.46518377 59.74067825 22 62 C28.95234964 64.31744988 38.18621191 63.75390602 45 61 C48.11378408 58.04589715 49.61669064 55.03465229 51 51 C51.99 51 52.98 51 54 51 C52.32994924 66.67005076 52.32994924 66.67005076 51 68 C48.80262767 68.10038853 46.60200714 68.13081579 44.40234375 68.1328125 C43.73465469 68.13376923 43.06696564 68.13472595 42.37904358 68.13571167 C40.95915636 68.13639395 39.53926604 68.13453638 38.11938477 68.13037109 C35.97079196 68.12508195 33.82241387 68.13028364 31.67382812 68.13671875 C25.02979568 68.13928898 18.57698443 67.96624833 12 67 C10.32457024 67.28604898 8.65614657 67.61781233 7 68 C4.66698014 68.03824623 2.33288492 68.04574284 0 68 C0 67.34 0 66.68 0 66 C3.465 65.01 3.465 65.01 7 64 C7.77056994 60.5809813 8.1261624 57.42403189 8.12939453 53.921875 C8.13254669 52.93735352 8.13569885 51.95283203 8.13894653 50.93847656 C8.1369223 49.8862793 8.13489807 48.83408203 8.1328125 47.75 C8.13376923 46.65913086 8.13472595 45.56826172 8.13571167 44.44433594 C8.13639122 42.14127545 8.13455262 39.83821304 8.13037109 37.53515625 C8.12501972 34.01297701 8.13032374 30.49092528 8.13671875 26.96875 C8.13605793 24.72916639 8.13477668 22.48958285 8.1328125 20.25 C8.13483673 19.19780273 8.13686096 18.14560547 8.13894653 17.06152344 C8.13579437 16.07700195 8.13264221 15.09248047 8.12939453 14.078125 C8.12859894 13.21606445 8.12780334 12.35400391 8.12698364 11.46582031 C7.99452957 8.89377303 7.56558989 6.50952225 7 4 C4.69 3.34 2.38 2.68 0 2 C0 1.34 0 0.68 0 0 Z " fill="#BD973F" transform="translate(142,534)"/>
<path d="M0 0 C3.43415256 -0.06868305 6.61695632 -0.07182069 10 0.5625 C12.97244466 1.15162646 12.97244466 1.15162646 15.81640625 0.53125 C21.80543239 -0.40074394 27.89445273 -0.10369539 33.9375 -0.0625 C35.19369141 -0.05798828 36.44988281 -0.05347656 37.74414062 -0.04882812 C40.82947663 -0.03709681 43.91471316 -0.020681 47 0 C47.91585285 3.31803928 47.96907495 5.81670039 47.5625 9.25 C47.46066406 10.14203125 47.35882812 11.0340625 47.25390625 11.953125 C47.17011719 12.62859375 47.08632813 13.3040625 47 14 C46.01 14 45.02 14 44 14 C43.4140625 12.2421875 42.828125 10.484375 42.2421875 8.7265625 C40.29037389 6.01366434 38.20622556 5.76478775 35 5 C32.21033569 4.65668833 29.43209365 4.49724907 26.625 4.375 C22.850625 4.189375 22.850625 4.189375 19 4 C19 12.91 19 21.82 19 31 C21.51625 30.87625 24.0325 30.7525 26.625 30.625 C27.40568848 30.59100098 28.18637695 30.55700195 28.99072266 30.52197266 C33.26746384 30.28202348 37.04278381 29.78987932 41 28 C41.495 26.515 41.495 26.515 42 25 C42.99 25 43.98 25 45 25 C45 29.95 45 34.9 45 40 C44.01 40 43.02 40 42 40 C41.7525 39.360625 41.505 38.72125 41.25 38.0625 C40.21530334 35.85376445 40.21530334 35.85376445 38.17871094 35.39086914 C36.06412498 35.01150427 34.03506653 34.79731413 31.890625 34.68359375 C30.75947266 34.62075195 30.75947266 34.62075195 29.60546875 34.55664062 C28.82816406 34.51732422 28.05085937 34.47800781 27.25 34.4375 C26.06083984 34.37272461 26.06083984 34.37272461 24.84765625 34.30664062 C22.89862185 34.20097009 20.94933252 34.10002034 19 34 C19.10995451 37.9172412 19.24056734 41.83352845 19.375 45.75 C19.4059375 46.86117187 19.436875 47.97234375 19.46875 49.1171875 C19.50742187 50.18710937 19.54609375 51.25703125 19.5859375 52.359375 C19.63306885 53.83615723 19.63306885 53.83615723 19.68115234 55.34277344 C20.00733016 58.06108845 20.46518377 59.74067825 22 62 C28.95234964 64.31744988 38.18621191 63.75390602 45 61 C48.11378408 58.04589715 49.61669064 55.03465229 51 51 C51.99 51 52.98 51 54 51 C52.32994924 66.67005076 52.32994924 66.67005076 51 68 C48.80262767 68.10038853 46.60200714 68.13081579 44.40234375 68.1328125 C43.73465469 68.13376923 43.06696564 68.13472595 42.37904358 68.13571167 C40.95915636 68.13639395 39.53926604 68.13453638 38.11938477 68.13037109 C35.97079196 68.12508195 33.82241387 68.13028364 31.67382812 68.13671875 C25.02979568 68.13928898 18.57698443 67.96624833 12 67 C10.32457024 67.28604898 8.65614657 67.61781233 7 68 C4.66698014 68.03824623 2.33288492 68.04574284 0 68 C0 67.34 0 66.68 0 66 C0.94875 65.773125 1.8975 65.54625 2.875 65.3125 C6.13145337 64.33627392 6.13145337 64.33627392 7.17913818 61.73535156 C8.00779082 58.9740387 8.25348473 56.7956138 8.25878906 53.921875 C8.26824554 52.44509277 8.26824554 52.44509277 8.27789307 50.93847656 C8.2738446 49.8862793 8.26979614 48.83408203 8.265625 47.75 C8.26753845 46.65913086 8.2694519 45.56826172 8.27142334 44.44433594 C8.27278244 42.14127369 8.26910521 39.83820371 8.26074219 37.53515625 C8.25003903 34.01284555 8.26064704 30.49104487 8.2734375 26.96875 C8.27211586 24.72916554 8.26955336 22.4895814 8.265625 20.25 C8.26967346 19.19780273 8.27372192 18.14560547 8.27789307 17.06152344 C8.27158875 16.07700195 8.26528442 15.09248047 8.25878906 14.078125 C8.25719788 13.21606445 8.25560669 12.35400391 8.25396729 11.46582031 C7.96134258 8.6246672 7.31909372 6.53344652 6 4 C2.97017694 2.62810173 2.97017694 2.62810173 0 2 C0 1.34 0 0.68 0 0 Z " fill="#BD973F" transform="translate(529,534)"/>
<path d="M0 0 C-0.66 5.94 -1.32 11.88 -2 18 C-2.99 18 -3.98 18 -5 18 C-5.14695312 17.33613281 -5.29390625 16.67226563 -5.4453125 15.98828125 C-7.05034817 9.66960636 -8.38836792 6.45331205 -14 3 C-22.3284653 -0.17995948 -29.91474428 0.5553171 -38 4 C-44.41197022 7.91300844 -47.6717871 13.30192124 -49.68359375 20.41796875 C-52.21195995 31.66483911 -51.6350478 43.26911182 -45.6875 53.4375 C-40.8061677 60.39845316 -35.17676338 63.35956069 -27 65 C-21.02416279 65.80934344 -15.37940251 64.65256534 -10 62 C-6.56953674 58.74545794 -5.26088909 55.51818591 -4 51 C-3.01 51 -2.02 51 -1 51 C-1.33 55.29 -1.66 59.58 -2 64 C-14.85536226 69.79751631 -30.92953088 70.19041553 -44.23046875 65.32421875 C-51.74389159 61.73176411 -57.57952469 56.69263524 -61 49 C-64.17293386 39.77167829 -64.91952507 27.17073004 -61.09765625 17.98046875 C-56.11867872 8.99704667 -49.32419462 2.78965852 -39.6875 -0.875 C-28.31971308 -3.90403413 -11.13774132 -3.71258044 0 0 Z " fill="#BD973F" transform="translate(732,535)"/>
<path d="M0 0 C-0.66 5.94 -1.32 11.88 -2 18 C-2.99 18 -3.98 18 -5 18 C-5.14695312 17.33613281 -5.29390625 16.67226563 -5.4453125 15.98828125 C-7.05034817 9.66960636 -8.38836792 6.45331205 -14 3 C-22.3284653 -0.17995948 -29.91474428 0.5553171 -38 4 C-44.41197022 7.91300844 -47.6717871 13.30192124 -49.68359375 20.41796875 C-52.21195995 31.66483911 -51.6350478 43.26911182 -45.6875 53.4375 C-40.8061677 60.39845316 -35.17676338 63.35956069 -27 65 C-21.02416279 65.80934344 -15.37940251 64.65256534 -10 62 C-6.56953674 58.74545794 -5.26088909 55.51818591 -4 51 C-3.01 51 -2.02 51 -1 51 C-1.33 55.29 -1.66 59.58 -2 64 C-14.85536226 69.79751631 -30.92953088 70.19041553 -44.23046875 65.32421875 C-51.74389159 61.73176411 -57.57952469 56.69263524 -61 49 C-64.17293386 39.77167829 -64.91952507 27.17073004 -61.09765625 17.98046875 C-56.11867872 8.99704667 -49.32419462 2.78965852 -39.6875 -0.875 C-28.31971308 -3.90403413 -11.13774132 -3.71258044 0 0 Z " fill="#BD973F" transform="translate(487,535)"/>
<path d="M0 0 C3.96 0 7.92 0 12 0 C12.64066406 1.22074219 13.28132812 2.44148438 13.94140625 3.69921875 C18.91114481 13.16020691 23.90619948 22.60514275 29 32 C31.67793315 28.72892045 33.37621084 25.3191447 35.13671875 21.484375 C35.42102249 20.86854553 35.70532623 20.25271606 35.99824524 19.6182251 C36.89912478 17.66416668 37.79339398 15.70716558 38.6875 13.75 C39.29969513 12.41907062 39.91232083 11.08833921 40.52539062 9.7578125 C42.02191747 6.5074847 43.51253382 3.25448599 45 0 C48.96 0 52.92 0 57 0 C54 2 54 2 52 2 C51.86614641 10.01634252 52.07205238 17.99274436 52.4375 26 C52.47673584 26.9077417 52.51597168 27.8154834 52.55639648 28.75073242 C52.70509346 34.97607925 52.70509346 34.97607925 54 41 C55.32 41.99 56.64 42.98 58 44 C52.39 44 46.78 44 41 44 C41.99 43.01 42.98 42.02 44 41 C44.41572344 37.8012186 44.41572344 37.8012186 44.29296875 34.14453125 C44.28660149 33.15207649 44.28660149 33.15207649 44.28010559 32.13957214 C44.26333693 30.0301309 44.22569099 27.92165154 44.1875 25.8125 C44.17245068 24.38087319 44.1587627 22.94923138 44.14648438 21.51757812 C44.1134403 18.01140712 44.06167167 14.50579746 44 11 C43.61666504 11.85754883 43.23333008 12.71509766 42.83837891 13.59863281 C41.41150548 16.78953849 39.98384861 19.98009122 38.55566406 23.17041016 C37.93848896 24.54950184 37.32162362 25.92873219 36.70507812 27.30810547 C35.81722724 29.29431382 34.92825216 31.2800157 34.0390625 33.265625 C33.50490723 34.45961914 32.97075195 35.65361328 32.42041016 36.88378906 C31.32598074 39.28483703 30.20406652 41.65283235 29 44 C28.01 44 27.02 44 26 44 C25.69296143 43.35562988 25.38592285 42.71125977 25.06958008 42.04736328 C23.65152559 39.07277762 22.23202049 36.09888633 20.8125 33.125 C20.32974609 32.11179687 19.84699219 31.09859375 19.34960938 30.0546875 C16.29986012 23.66863538 13.19009413 17.31713947 10 11 C9.2344788 17.66307733 8.84708315 24.2962656 8.75 31 C8.72873047 31.7417749 8.70746094 32.4835498 8.68554688 33.24780273 C8.60855411 37.32967804 8.60855411 37.32967804 10.390625 40.875 C10.92171875 41.24625 11.4528125 41.6175 12 42 C12.66 42.66 13.32 43.32 14 44 C9.05 44 4.1 44 -1 44 C0.98 41.525 0.98 41.525 3 39 C3.71210611 36.66418104 3.71210611 36.66418104 3.828125 34.2265625 C3.90562988 33.32566895 3.98313477 32.42477539 4.06298828 31.49658203 C4.12470215 30.54895996 4.18641602 29.60133789 4.25 28.625 C4.32589355 27.65288574 4.40178711 26.68077148 4.47998047 25.67919922 C5.05475601 17.77701309 5.22203658 9.91930484 5 2 C3.35 1.67 1.7 1.34 0 1 C0 0.67 0 0.34 0 0 Z " fill="#161C37" transform="translate(808,430)"/>
<path d="M0 0 C1.02480469 0.08378906 2.04960937 0.16757812 3.10546875 0.25390625 C4.46611879 0.35712798 5.82679746 0.45997265 7.1875 0.5625 C7.86103516 0.61857422 8.53457031 0.67464844 9.22851562 0.73242188 C13.04461364 1.01164856 16.28543921 0.8650347 20 0 C21.43628457 -0.06266512 22.8750555 -0.08686347 24.3125 -0.0625 C26.1378125 -0.0315625 26.1378125 -0.0315625 28 0 C28 0.66 28 1.32 28 2 C26.865625 2.433125 25.73125 2.86625 24.5625 3.3125 C23.386875 3.869375 22.21125 4.42625 21 5 C20.01625608 7.95123176 19.87337313 9.86673662 19.87060547 12.94287109 C19.86745331 13.94756439 19.86430115 14.95225769 19.86105347 15.98739624 C19.8630777 17.07178986 19.86510193 18.15618347 19.8671875 19.2734375 C19.86623077 20.38933258 19.86527405 21.50522766 19.86428833 22.65493774 C19.8636074 25.01702938 19.86545561 27.37912289 19.86962891 29.74121094 C19.87496831 33.35355857 19.86968611 36.9657813 19.86328125 40.578125 C19.86394224 42.87239611 19.86522385 45.16666714 19.8671875 47.4609375 C19.86516327 48.54128265 19.86313904 49.62162781 19.86105347 50.73471069 C19.86420563 51.74570831 19.86735779 52.75670593 19.87060547 53.79833984 C19.87140106 54.68419769 19.87219666 55.57005554 19.87301636 56.48275757 C20.00376932 59.07472051 20.42815591 61.47170342 21 64 C23.31 64.66 25.62 65.32 28 66 C28 66.66 28 67.32 28 68 C24.13609073 68.06778788 20.62213627 68.10978875 16.8125 67.4375 C11.15704205 66.78851302 5.64913661 67.44782875 0 68 C0 67.34 0 66.68 0 66 C0.94875 65.62875 1.8975 65.2575 2.875 64.875 C6.12843195 63.31367646 6.12843195 63.31367646 7.17871094 60.53515625 C8.27106204 55.83324066 8.28599246 51.37408355 8.265625 46.5625 C8.26753845 45.56420166 8.2694519 44.56590332 8.27142334 43.53735352 C8.27278055 41.43277737 8.26911662 39.32819273 8.26074219 37.22363281 C8.25003624 34.01087556 8.26065341 30.79867745 8.2734375 27.5859375 C8.27211582 25.53645711 8.26955326 23.48697706 8.265625 21.4375 C8.26967346 20.48109619 8.27372192 19.52469238 8.27789307 18.53930664 C8.24397072 13.69046965 8.13426568 9.46303776 6 5 C2.9994093 3.08160141 2.9994093 3.08160141 0 2 C0 1.34 0 0.68 0 0 Z " fill="#BD973F" transform="translate(494,534)"/>
<path d="M0 0 C6.50041894 3.76095667 10.29117182 7.77135399 12.484375 15.08203125 C13.28287756 23.06705684 12.30022791 29.60053535 7.921875 36.39453125 C2.43878073 41.87762552 -2.33155654 43.73798011 -9.953125 43.89453125 C-15.96506266 43.82642485 -20.55155965 43.49580178 -25.265625 39.58203125 C-30.5182027 34.15279735 -32.87855537 28.7623833 -33.578125 21.20703125 C-32.93646448 13.7637692 -30.75736416 7.82969312 -25.265625 2.58203125 C-18.32535748 -2.82531311 -7.94606296 -3.45026418 0 0 Z M-19.265625 3.58203125 C-25.12674405 10.64235625 -25.94733972 17.63297624 -25.265625 26.58203125 C-24.06481663 32.19841055 -21.78662916 35.92217074 -17.265625 39.58203125 C-13.05095506 42.02210332 -9.94706474 41.66879405 -5.265625 40.58203125 C-0.18422722 38.4549345 1.38784982 35.35888607 3.734375 30.58203125 C5.88076341 23.73335771 5.58249037 15.87078853 2.71484375 9.30078125 C0.12210041 4.75573317 -3.26214721 1.99326857 -8.265625 0.58203125 C-12.57196996 0.58203125 -15.7143878 1.17481677 -19.265625 3.58203125 Z " fill="#161C37" transform="translate(719.265625,430.41796875)"/>
<path d="M0 0 C3.87485635 -0.08751413 7.74945643 -0.14056435 11.625 -0.1875 C13.26662109 -0.22520508 13.26662109 -0.22520508 14.94140625 -0.26367188 C25.252232 -0.35740665 25.252232 -0.35740665 30 3 C32.41767072 6.43153264 33.01129054 8.35643909 32.9375 12.5625 C31.91869576 16.29811554 30.67878703 18.2400376 28 21 C27.34 21.33 26.68 21.66 26 22 C29.14844014 30.43659689 33.32897954 37.949033 41.49609375 42.1953125 C42.24052734 42.59363281 42.24052734 42.59363281 43 43 C43 43.33 43 43.66 43 44 C41.43839515 44.08187055 39.87551517 44.13958275 38.3125 44.1875 C37.44238281 44.22230469 36.57226562 44.25710938 35.67578125 44.29296875 C31.75580267 43.86377401 29.27263556 42.57287797 26.7644043 39.47290039 C25.50638973 37.66219424 24.33753095 35.81849904 23.1875 33.9375 C22.78080078 33.30005859 22.37410156 32.66261719 21.95507812 32.00585938 C19 27.29263393 19 27.29263393 19 25 C16.69 24.67 14.38 24.34 12 24 C12.22794126 26.77428502 12.48124927 29.54212785 12.75 32.3125 C12.811875 33.09818359 12.87375 33.88386719 12.9375 34.69335938 C13.01484375 35.45068359 13.0921875 36.20800781 13.171875 36.98828125 C13.2347168 37.68477783 13.29755859 38.38127441 13.36230469 39.09887695 C13.99765091 41.58954843 13.99765091 41.58954843 18 44 C12.06 44 6.12 44 0 44 C1.32 43.01 2.64 42.02 4 41 C5.44240201 37.57393915 5.1293941 33.85593329 5.1328125 30.1875 C5.13376923 29.53676514 5.13472595 28.88603027 5.13571167 28.21557617 C5.13639018 26.84391177 5.13455887 25.47224411 5.13037109 24.10058594 C5.12501812 22.00708774 5.13032716 19.91380407 5.13671875 17.8203125 C5.13605791 16.48437453 5.13477663 15.14843669 5.1328125 13.8125 C5.13112061 11.99685547 5.13112061 11.99685547 5.12939453 10.14453125 C5.02241467 6.46247858 5.02241467 6.46247858 4 3 C2.02329393 1.24577228 2.02329393 1.24577228 0 0 Z M12 2 C11.97111486 5.14581423 11.95324077 8.29159469 11.9375 11.4375 C11.92912109 12.33533203 11.92074219 13.23316406 11.91210938 14.15820312 C11.90888672 15.01220703 11.90566406 15.86621094 11.90234375 16.74609375 C11.89710693 17.53685303 11.89187012 18.3276123 11.88647461 19.14233398 C11.79504091 21.01592689 11.79504091 21.01592689 13 22 C17.55440192 22.12933393 21.00727894 21.8232321 24.5625 18.875 C26.37462469 15.25075063 26.50128322 13.01026576 26 9 C24.64753111 5.79678422 23.71441282 4.40547754 20.6875 2.6875 C17.70030367 1.9233335 15.07173195 1.95339441 12 2 Z " fill="#161C37" transform="translate(304,430)"/>
<path d="M0 0 C1.53166168 4.08443115 0.63081652 7.79455657 0 12 C-0.66 12 -1.32 12 -2 12 C-2.21914063 11.44570313 -2.43828125 10.89140625 -2.6640625 10.3203125 C-4.7238205 5.58086914 -4.7238205 5.58086914 -8.6875 2.4375 C-14.50692508 1.66889669 -19.12328284 2.0268874 -24.375 4.75 C-28.92616526 8.6509988 -30.62059099 12.60699941 -31.2734375 18.4453125 C-31.54771363 25.68198267 -30.19514722 31.0282194 -26 37 C-21.04872615 40.98517163 -16.22350242 41.31644928 -10 41 C-6.21912772 40.45637869 -6.21912772 40.45637869 -3 39 C-1.48207356 36.50358872 -1.48207356 36.50358872 -1 34 C-0.34 34 0.32 34 1 34 C0.67 36.64 0.34 39.28 0 42 C-5.39460953 44.27141454 -10.26157749 44.20413361 -16 44 C-16 44.66 -16 45.32 -16 46 C-15.195625 46.309375 -14.39125 46.61875 -13.5625 46.9375 C-11 48 -11 48 -10 49 C-9.625 51.375 -9.625 51.375 -10 54 C-13.55964352 57.03616654 -16.42411796 57.31924758 -21 57 C-20.67 56.01 -20.34 55.02 -20 54 C-17.9375 53.3125 -17.9375 53.3125 -16 53 C-16 52.01 -16 51.02 -16 50 C-17.32 50 -18.64 50 -20 50 C-19.67 48.02 -19.34 46.04 -19 44 C-19.99 43.938125 -20.98 43.87625 -22 43.8125 C-27.83813291 42.97171412 -32.27854544 39.72145456 -36.375 35.625 C-40.20103004 29.44448993 -40.90726234 22.77549906 -39.5703125 15.73828125 C-37.71850873 9.00548853 -34.14228317 4.66357339 -28.29296875 0.90234375 C-19.86079527 -3.04736714 -8.88197313 -1.41745775 0 0 Z " fill="#161C37" transform="translate(629,430)"/>
<path d="M0 0 C0.99 0 1.98 0 3 0 C3.47308594 1.18851562 3.94617188 2.37703125 4.43359375 3.6015625 C5.45689052 6.17093575 6.48338399 8.73889526 7.5168457 11.30419922 C9.50530214 16.240133 11.45984781 21.185348 13.359375 26.15625 C14.13520622 28.1459154 14.91124269 30.13550079 15.6875 32.125 C16.04320068 33.07842285 16.39890137 34.0318457 16.76538086 35.01416016 C17.11479736 35.89894043 17.46421387 36.7837207 17.82421875 37.6953125 C18.27414185 38.8711792 18.27414185 38.8711792 18.7331543 40.07080078 C20.41288191 42.62875175 22.1333138 43.11361577 25 44 C25 44.33 25 44.66 25 45 C18.73 45 12.46 45 6 45 C7.32 44.01 8.64 43.02 10 42 C9.7834375 41.24074219 9.566875 40.48148437 9.34375 39.69921875 C9.0653125 38.70535156 8.786875 37.71148437 8.5 36.6875 C8.2215625 35.70136719 7.943125 34.71523438 7.65625 33.69921875 C7 31 7 31 7 28 C2.05 28 -2.9 28 -8 28 C-8.474375 29.7325 -8.94875 31.465 -9.4375 33.25 C-9.83775391 34.71179688 -9.83775391 34.71179688 -10.24609375 36.203125 C-10.85544584 38.46372653 -11.44238255 40.72622009 -12 43 C-10.68 43.66 -9.36 44.32 -8 45 C-13.28 45 -18.56 45 -24 45 C-22 43 -22 43 -20.03662109 42.19604492 C-17.23736825 40.55212983 -16.67937293 38.82861465 -15.4140625 35.86328125 C-14.9607959 34.81720703 -14.5075293 33.77113281 -14.04052734 32.69335938 C-13.57340332 31.57767578 -13.1062793 30.46199219 -12.625 29.3125 C-12.14111816 28.18521484 -11.65723633 27.05792969 -11.15869141 25.89648438 C-7.99117161 18.479749 -4.92864884 11.02332186 -2.0234375 3.5 C-1 1 -1 1 0 0 Z M-1 9 C-2.98 14.61 -4.96 20.22 -7 26 C-2.71 26 1.58 26 6 26 C4.02 20.39 2.04 14.78 0 9 C-0.33 9 -0.66 9 -1 9 Z " fill="#161C37" transform="translate(658,429)"/>
<path d="M0 0 C0.99 0 1.98 0 3 0 C3.37286133 0.95253662 3.74572266 1.90507324 4.12988281 2.88647461 C5.52935021 6.46003929 6.93152572 10.03253641 8.33447266 13.60473633 C8.9383886 15.14351416 9.54159448 16.68257088 10.14404297 18.22192383 C14.47247165 32.60129791 14.47247165 32.60129791 22.75 43.5625 C23.4925 43.706875 24.235 43.85125 25 44 C25 44.33 25 44.66 25 45 C18.73 45 12.46 45 6 45 C7.32 44.01 8.64 43.02 10 42 C9.7834375 41.24074219 9.566875 40.48148437 9.34375 39.69921875 C9.0653125 38.70535156 8.786875 37.71148437 8.5 36.6875 C8.2215625 35.70136719 7.943125 34.71523438 7.65625 33.69921875 C7 31 7 31 7 28 C2.05 28 -2.9 28 -8 28 C-8.474375 29.7325 -8.94875 31.465 -9.4375 33.25 C-9.83775391 34.71179688 -9.83775391 34.71179688 -10.24609375 36.203125 C-10.85544584 38.46372653 -11.44238255 40.72622009 -12 43 C-10.68 43.66 -9.36 44.32 -8 45 C-13.28 45 -18.56 45 -24 45 C-22 43 -22 43 -20.03662109 42.19604492 C-17.23736825 40.55212983 -16.67937293 38.82861465 -15.4140625 35.86328125 C-14.9607959 34.81720703 -14.5075293 33.77113281 -14.04052734 32.69335938 C-13.57340332 31.57767578 -13.1062793 30.46199219 -12.625 29.3125 C-12.14111816 28.18521484 -11.65723633 27.05792969 -11.15869141 25.89648438 C-7.99117161 18.479749 -4.92864884 11.02332186 -2.0234375 3.5 C-1 1 -1 1 0 0 Z M-1 9 C-2.98 14.61 -4.96 20.22 -7 26 C-3.04 26 0.92 26 5 26 C3.7915371 20.05064416 2.25422333 14.63555833 0 9 C-0.33 9 -0.66 9 -1 9 Z " fill="#161C37" transform="translate(560,429)"/>
<path d="M0 0 C10.23 0 20.46 0 31 0 C31 2.97 31 5.94 31 9 C30.01 9 29.02 9 28 9 C27.731875 8.195625 27.46375 7.39125 27.1875 6.5625 C26.795625 5.716875 26.40375 4.87125 26 4 C22.98509443 2.99503148 20.95818308 2.89664697 17.8125 2.9375 C15.4303125 2.9684375 15.4303125 2.9684375 13 3 C12.67 8.61 12.34 14.22 12 20 C13.753125 19.855625 15.50625 19.71125 17.3125 19.5625 C18.29863281 19.48128906 19.28476562 19.40007812 20.30078125 19.31640625 C23.09375599 19.08187441 23.09375599 19.08187441 26 18 C26.33 17.34 26.66 16.68 27 16 C27.66 16 28.32 16 29 16 C29 19.3 29 22.6 29 26 C28.01 25.67 27.02 25.34 26 25 C26 24.34 26 23.68 26 23 C19.07 22.505 19.07 22.505 12 22 C12.144375 24.2275 12.28875 26.455 12.4375 28.75 C12.55931641 30.62945312 12.55931641 30.62945312 12.68359375 32.546875 C13.00837412 36.35294774 13.00837412 36.35294774 14 40 C18.08150457 42.04075229 22.96518707 41.19524772 27.3125 40.375 C30.82436406 38.57823234 31.59034645 36.60244796 33 33 C33.66 33 34.32 33 35 33 C34.85957123 34.64630328 34.71250671 36.29204179 34.5625 37.9375 C34.48128906 38.85402344 34.40007813 39.77054687 34.31640625 40.71484375 C34 43 34 43 33 44 C30.55169574 44.08843793 28.13179401 44.11528752 25.68359375 44.09765625 C24.95253922 44.0962413 24.22148468 44.09482635 23.46827698 44.09336853 C21.12464368 44.08775408 18.78110461 44.07519922 16.4375 44.0625 C14.85221492 44.05748686 13.26692834 44.05292363 11.68164062 44.04882812 C7.7877239 44.03777997 3.89387795 44.02050572 0 44 C0.9590625 43.4121875 0.9590625 43.4121875 1.9375 42.8125 C4.52981625 40.53440391 4.6769959 39.39490137 5 36 C5.09071816 33.85562811 5.1306414 31.70878886 5.1328125 29.5625 C5.13410156 28.33789062 5.13539063 27.11328125 5.13671875 25.8515625 C5.13285156 24.58054687 5.12898437 23.30953125 5.125 22 C5.13080078 20.09347656 5.13080078 20.09347656 5.13671875 18.1484375 C5.13478516 16.31152344 5.13478516 16.31152344 5.1328125 14.4375 C5.13168457 13.32246094 5.13055664 12.20742188 5.12939453 11.05859375 C5.00753556 8.17812352 4.89025229 5.74284446 4 3 C2.68 2.01 1.36 1.02 0 0 Z " fill="#161C37" transform="translate(763,430)"/>
<path d="M0 0 C10.23 0 20.46 0 31 0 C31 2.97 31 5.94 31 9 C30.01 9 29.02 9 28 9 C27.731875 8.195625 27.46375 7.39125 27.1875 6.5625 C26.795625 5.716875 26.40375 4.87125 26 4 C22.98509443 2.99503148 20.95818308 2.89664697 17.8125 2.9375 C15.4303125 2.9684375 15.4303125 2.9684375 13 3 C12.67 8.61 12.34 14.22 12 20 C13.753125 19.855625 15.50625 19.71125 17.3125 19.5625 C18.29863281 19.48128906 19.28476562 19.40007812 20.30078125 19.31640625 C23.09375599 19.08187441 23.09375599 19.08187441 26 18 C26.33 17.34 26.66 16.68 27 16 C27.66 16 28.32 16 29 16 C29 19.3 29 22.6 29 26 C28.01 25.67 27.02 25.34 26 25 C26 24.34 26 23.68 26 23 C19.07 22.505 19.07 22.505 12 22 C12.144375 24.2275 12.28875 26.455 12.4375 28.75 C12.55931641 30.62945312 12.55931641 30.62945312 12.68359375 32.546875 C13.00837412 36.35294774 13.00837412 36.35294774 14 40 C18.08150457 42.04075229 22.96518707 41.19524772 27.3125 40.375 C30.82436406 38.57823234 31.59034645 36.60244796 33 33 C33.66 33 34.32 33 35 33 C34.85957123 34.64630328 34.71250671 36.29204179 34.5625 37.9375 C34.48128906 38.85402344 34.40007812 39.77054687 34.31640625 40.71484375 C34 43 34 43 33 44 C30.55169574 44.08843793 28.13179401 44.11528752 25.68359375 44.09765625 C24.95253922 44.0962413 24.22148468 44.09482635 23.46827698 44.09336853 C21.12464368 44.08775408 18.78110461 44.07519922 16.4375 44.0625 C14.85221492 44.05748686 13.26692834 44.05292363 11.68164062 44.04882812 C7.7877239 44.03777997 3.89387795 44.02050572 0 44 C0.9590625 43.4121875 0.9590625 43.4121875 1.9375 42.8125 C4.52981625 40.53440391 4.6769959 39.39490137 5 36 C5.09071816 33.85562811 5.1306414 31.70878886 5.1328125 29.5625 C5.13410156 28.33789062 5.13539063 27.11328125 5.13671875 25.8515625 C5.13285156 24.58054687 5.12898438 23.30953125 5.125 22 C5.13080078 20.09347656 5.13080078 20.09347656 5.13671875 18.1484375 C5.13478516 16.31152344 5.13478516 16.31152344 5.1328125 14.4375 C5.13168457 13.32246094 5.13055664 12.20742188 5.12939453 11.05859375 C5.00753556 8.17812352 4.89025229 5.74284446 4 3 C2.68 2.01 1.36 1.02 0 0 Z " fill="#161C37" transform="translate(260,430)"/>
<path d="M0 0 C1.53166168 4.08443115 0.63081652 7.79455657 0 12 C-0.66 12 -1.32 12 -2 12 C-2.21914063 11.44570313 -2.43828125 10.89140625 -2.6640625 10.3203125 C-4.7238205 5.58086914 -4.7238205 5.58086914 -8.6875 2.4375 C-14.50692508 1.66889669 -19.12328284 2.0268874 -24.375 4.75 C-28.92616526 8.6509988 -30.62059099 12.60699941 -31.2734375 18.4453125 C-31.54771363 25.68198267 -30.19514722 31.0282194 -26 37 C-21.04872615 40.98517163 -16.22350242 41.31644928 -10 41 C-6.21912772 40.45637869 -6.21912772 40.45637869 -3 39 C-1.48207356 36.50358872 -1.48207356 36.50358872 -1 34 C-0.34 34 0.32 34 1 34 C0.67 36.64 0.34 39.28 0 42 C-7.99660247 45.13074531 -17.86267179 45.48143252 -26.15625 43.08984375 C-32.63520381 40.05527352 -36.6848266 36.38187445 -39.3125 29.625 C-40.72057782 22.2005897 -40.44352699 15.80157636 -37 9 C-27.92374526 -3.41381931 -13.9480434 -2.22594258 0 0 Z " fill="#161C37" transform="translate(531,430)"/>
<path d="M0 0 C1.53166168 4.08443115 0.63081652 7.79455657 0 12 C-0.66 12 -1.32 12 -2 12 C-2.21914062 11.44570313 -2.43828125 10.89140625 -2.6640625 10.3203125 C-4.7238205 5.58086914 -4.7238205 5.58086914 -8.6875 2.4375 C-14.50692508 1.66889669 -19.12328284 2.0268874 -24.375 4.75 C-28.92616526 8.6509988 -30.62059099 12.60699941 -31.2734375 18.4453125 C-31.54771363 25.68198267 -30.19514722 31.0282194 -26 37 C-21.04872615 40.98517163 -16.22350242 41.31644928 -10 41 C-6.21912772 40.45637869 -6.21912772 40.45637869 -3 39 C-1.48207356 36.50358872 -1.48207356 36.50358872 -1 34 C-0.34 34 0.32 34 1 34 C0.67 36.64 0.34 39.28 0 42 C-7.99660247 45.13074531 -17.86267179 45.48143252 -26.15625 43.08984375 C-32.63520381 40.05527352 -36.6848266 36.38187445 -39.3125 29.625 C-40.72057782 22.2005897 -40.44352699 15.80157636 -37 9 C-27.92374526 -3.41381931 -13.9480434 -2.22594258 0 0 Z " fill="#161C37" transform="translate(251,430)"/>
<path d="M0 0 C13.2 0 26.4 0 40 0 C40.495 4.95 40.495 4.95 41 10 C38 9 38 9 36.4375 7.0625 C33.22432679 4.0064761 33.22432679 4.0064761 24 3 C24.495 22.8 24.495 22.8 25 43 C26.65 43.33 28.3 43.66 30 44 C30 44.33 30 44.66 30 45 C23.4 45 16.8 45 10 45 C13 43 13 43 15 42 C16.24473532 38.26579403 16.23209785 34.72634762 16.31640625 30.83203125 C16.33718735 30.03721848 16.35796844 29.2424057 16.37937927 28.42350769 C16.44472087 25.88659237 16.50368808 23.34957427 16.5625 20.8125 C16.60569986 19.09178628 16.64931463 17.37108292 16.69335938 15.65039062 C16.80038648 11.43369887 16.90169724 7.2169038 17 3 C14.87213201 3.20079881 12.74754018 3.43657063 10.625 3.6875 C9.44164062 3.81511719 8.25828125 3.94273437 7.0390625 4.07421875 C6.03617187 4.37972656 5.03328125 4.68523437 4 5 C2.72291666 7.46302084 2.72291666 7.46302084 2 10 C1.01 10.33 0.02 10.66 -1 11 C-0.67 7.37 -0.34 3.74 0 0 Z " fill="#161C37" transform="translate(347,429)"/>
<path d="M0 0 C10.23 0 20.46 0 31 0 C31 2.97 31 5.94 31 9 C30.34 9 29.68 9 29 9 C28.525625 8.195625 28.05125 7.39125 27.5625 6.5625 C26.20016328 3.7081924 26.20016328 3.7081924 23 3 C21.10787263 2.77820215 19.21115528 2.59385985 17.3125 2.4375 C15.559375 2.293125 13.80625 2.14875 12 2 C12 8.27 12 14.54 12 21 C13.753125 20.855625 15.50625 20.71125 17.3125 20.5625 C18.29863281 20.48128906 19.28476562 20.40007812 20.30078125 20.31640625 C23.09375599 20.08187441 23.09375599 20.08187441 26 19 C26.33 18.34 26.66 17.68 27 17 C27.66 17 28.32 17 29 17 C29 20.3 29 23.6 29 27 C28.01 26.67 27.02 26.34 26 26 C26 25.34 26 24.68 26 24 C19.07 23.505 19.07 23.505 12 23 C12.66 28.94 13.32 34.88 14 41 C15.65 41.66 17.3 42.32 19 43 C19 43.33 19 43.66 19 44 C12.73 44 6.46 44 0 44 C1.32 43.01 2.64 42.02 4 41 C5.40330974 37.6367682 5.12931837 34.04160947 5.1328125 30.44140625 C5.13410156 29.16845703 5.13539063 27.89550781 5.13671875 26.58398438 C5.13462402 25.92358154 5.1325293 25.26317871 5.13037109 24.58276367 C5.12502706 22.5726768 5.13032271 20.56281426 5.13671875 18.55273438 C5.13478516 16.64137695 5.13478516 16.64137695 5.1328125 14.69140625 C5.13112061 12.94645874 5.13112061 12.94645874 5.12939453 11.16625977 C5.01002493 8.24530812 4.90796687 5.77799606 4 3 C2.68 2.01 1.36 1.02 0 0 Z " fill="#161C37" transform="translate(423,430)"/>
<path d="M0 0 C6.27 0 12.54 0 19 0 C17.35 1.65 15.7 3.3 14 5 C13.52381419 7.81818855 13.34135415 10.01595856 13.40625 12.8203125 C13.40618958 13.93102615 13.40618958 13.93102615 13.40612793 15.06417847 C13.41146951 16.62246229 13.42899435 18.18074667 13.45800781 19.73876953 C13.4999975 22.12485817 13.49906331 24.5081341 13.4921875 26.89453125 C13.5026764 28.41147795 13.5156129 29.92841013 13.53125 31.4453125 C13.53145142 32.15785187 13.53165283 32.87039124 13.53186035 33.60452271 C13.60632317 37.49859894 13.60632317 37.49859894 15.40429688 40.84716797 C15.93087891 41.22760254 16.45746094 41.60803711 17 42 C17.66 42.66 18.32 43.32 19 44 C12.73 44 6.46 44 0 44 C2.475 41.525 2.475 41.525 5 39 C5.47618581 36.18181145 5.65864585 33.98404144 5.59375 31.1796875 C5.59381042 30.06897385 5.59381042 30.06897385 5.59387207 28.93582153 C5.58853049 27.37753771 5.57100565 25.81925333 5.54199219 24.26123047 C5.5000025 21.87514183 5.50093669 19.4918659 5.5078125 17.10546875 C5.4973236 15.58852205 5.4843871 14.07158987 5.46875 12.5546875 C5.46854858 11.84214813 5.46834717 11.12960876 5.46813965 10.39547729 C5.39367683 6.50140106 5.39367683 6.50140106 3.59570312 3.15283203 C3.06912109 2.77239746 2.54253906 2.39196289 2 2 C1.34 1.34 0.68 0.68 0 0 Z " fill="#161C37" transform="translate(463,430)"/>
<path d="M0 0 C6.27 0 12.54 0 19 0 C17.35 1.65 15.7 3.3 14 5 C13.52381419 7.81818855 13.34135415 10.01595856 13.40625 12.8203125 C13.40618958 13.93102615 13.40618958 13.93102615 13.40612793 15.06417847 C13.41146951 16.62246229 13.42899435 18.18074667 13.45800781 19.73876953 C13.4999975 22.12485817 13.49906331 24.5081341 13.4921875 26.89453125 C13.5026764 28.41147795 13.5156129 29.92841013 13.53125 31.4453125 C13.53145142 32.15785187 13.53165283 32.87039124 13.53186035 33.60452271 C13.60632317 37.49859894 13.60632317 37.49859894 15.40429688 40.84716797 C15.93087891 41.22760254 16.45746094 41.60803711 17 42 C17.66 42.66 18.32 43.32 19 44 C12.73 44 6.46 44 0 44 C2.475 41.525 2.475 41.525 5 39 C5.47618581 36.18181145 5.65864585 33.98404144 5.59375 31.1796875 C5.59381042 30.06897385 5.59381042 30.06897385 5.59387207 28.93582153 C5.58853049 27.37753771 5.57100565 25.81925333 5.54199219 24.26123047 C5.5000025 21.87514183 5.50093669 19.4918659 5.5078125 17.10546875 C5.4973236 15.58852205 5.4843871 14.07158987 5.46875 12.5546875 C5.46854858 11.84214813 5.46834717 11.12960876 5.46813965 10.39547729 C5.39367683 6.50140106 5.39367683 6.50140106 3.59570312 3.15283203 C3.06912109 2.77239746 2.54253906 2.39196289 2 2 C1.34 1.34 0.68 0.68 0 0 Z " fill="#161C37" transform="translate(395,430)"/>
<path d="M0 0 C3.83420272 0.84738397 4.24578478 1.10350974 6.44140625 4.0703125 C7.32211008 5.46089749 8.17700089 6.86810581 9.0078125 8.2890625 C9.45318359 9.00449219 9.89855469 9.71992187 10.35742188 10.45703125 C11.45085835 12.22063846 12.51366116 14.0031729 13.5703125 15.7890625 C13.2403125 16.4490625 12.9103125 17.1090625 12.5703125 17.7890625 C7.43813347 15.53591073 3.6606209 12.52842728 -0.4296875 8.7890625 C-1.33460938 9.63791016 -1.33460938 9.63791016 -2.2578125 10.50390625 C-3.05703125 11.23738281 -3.85625 11.97085938 -4.6796875 12.7265625 C-5.46859375 13.45746094 -6.2575 14.18835938 -7.0703125 14.94140625 C-9.32013164 16.70326793 -10.64597304 17.38682853 -13.4296875 17.7890625 C-12.11813305 13.30181529 -10.39597486 9.76179348 -7.7421875 5.9140625 C-7.09894531 4.94726562 -6.45570313 3.98046875 -5.79296875 2.984375 C-3.4296875 0.7890625 -3.4296875 0.7890625 0 0 Z " fill="#BD973F" transform="translate(556.4296875,512.2109375)"/>
<path d="M0 0 C0.99 0 1.98 0 3 0 C1.125 4.875 1.125 4.875 0 6 C-3.8361222 6.14475933 -7.32307787 6.17661508 -11 5 C-11.33 5.66 -11.66 6.32 -12 7 C-12.99 7 -13.98 7 -15 7 C-13.125 2.125 -13.125 2.125 -12 1 C-8.1638778 0.85524067 -4.67692213 0.82338492 -1 2 C-0.67 1.34 -0.34 0.68 0 0 Z " fill="#161C37" transform="translate(665,417)"/>
</svg>
