<svg width="56" height="56" viewBox="0 0 56 56" fill="none" xmlns="http://www.w3.org/2000/svg">
<rect width="56" height="56" rx="28" fill="#F3D6D5" fill-opacity="0.5"/>
<rect x="0.5" y="0.5" width="55" height="55" rx="27.5" stroke="#EAB9B7" stroke-opacity="0.5"/>
<path d="M26.928 15.1603C27.3231 14.2189 28.6774 14.2189 29.0725 15.1603L29.0735 15.1622L32.2229 22.5948L32.3411 22.8732L32.6409 22.8986L40.6917 23.5812L40.6936 23.5822C41.7151 23.6634 42.1398 24.944 41.3567 25.6222H41.3557L35.2395 30.922L35.011 31.1193L35.0803 31.4132L36.9133 39.2804C37.1319 40.2219 36.1924 40.9754 35.344 40.6241L35.176 40.5392L28.259 36.3556L28.0002 36.1993L27.7424 36.3546L20.8254 40.5216L20.8245 40.5226C19.9383 41.0587 18.854 40.2681 19.0872 39.2638L20.9202 31.3966L20.9885 31.1027L20.761 30.9054L14.6438 25.6056C13.8604 24.9274 14.2853 23.6468 15.3069 23.5656L15.3088 23.5646L23.3586 22.882L23.6594 22.8566L23.7766 22.5792L26.927 15.1622L26.928 15.1603Z" fill="#E3A5A2" stroke="#7F3835"/>
</svg>
