<svg width="56" height="56" viewBox="0 0 56 56" fill="none" xmlns="http://www.w3.org/2000/svg">
<rect width="56" height="56" rx="28" fill="#F3D6D5" fill-opacity="0.5"/>
<rect x="0.5" y="0.5" width="55" height="55" rx="27.5" stroke="#EAB9B7" stroke-opacity="0.5"/>
<path d="M25.5002 10.1667C27.524 10.1669 29.1663 11.8099 29.1663 13.8337V16.8337H36.3333C37.8904 16.8337 39.1663 18.1095 39.1663 19.6667V26.8337H42.1663C44.19 26.8337 45.8331 28.476 45.8333 30.4997C45.8333 32.5236 44.1901 34.1667 42.1663 34.1667H39.1663V41.3337C39.1661 42.8907 37.8903 44.1667 36.3333 44.1667H30.5002V42.1667C30.5002 39.4073 28.2596 37.1669 25.5002 37.1667C22.7408 37.1667 20.5002 39.4072 20.5002 42.1667V44.1667H14.6663C13.1093 44.1665 11.8334 42.8906 11.8333 41.3337V35.4997H13.8333C16.5927 35.4997 18.8333 33.2592 18.8333 30.4997C18.8331 27.7404 16.5926 25.4997 13.8333 25.4997H11.8499V19.6667C11.8499 18.1063 13.1125 16.8339 14.6663 16.8337H21.8333V13.8337C21.8333 11.8098 23.4764 10.1667 25.5002 10.1667Z" fill="#E3A5A2" stroke="#7F3835"/>
</svg>
