<svg width="56" height="56" viewBox="0 0 56 56" fill="none" xmlns="http://www.w3.org/2000/svg">
<rect width="56" height="56" rx="28" fill="#F3D6D5" fill-opacity="0.5"/>
<rect x="0.5" y="0.5" width="55" height="55" rx="27.5" stroke="#EAB9B7" stroke-opacity="0.5"/>
<path d="M16.3838 13.5167H19.2666C20.6218 13.5167 21.7652 14.4625 22.043 15.7618L22.0869 16.0255L22.5703 20.2237C22.6696 21.0892 22.3712 21.9374 21.7627 22.546L18.6797 25.6299L18.4238 25.8858L18.5879 26.209C21.0362 31.0377 24.9797 34.9645 29.79 37.4122L30.1133 37.5772L33.4365 34.254C34.007 33.6835 34.7891 33.3858 35.5977 33.4327L35.7598 33.4464L39.9912 33.9288V33.9297C41.4266 34.1003 42.4975 35.306 42.4834 36.7286V39.6163C42.4834 41.2301 41.1415 42.5488 39.5645 42.4512C25.5993 41.5835 14.4165 30.417 13.5488 16.4356C13.4512 14.8585 14.77 13.5167 16.3838 13.5167ZM28.5508 21.2589C28.715 20.6254 29.3588 20.2549 29.9727 20.4171L29.9756 20.418C32.7109 21.1215 34.8575 23.2618 35.5977 26.0352V26.0362C35.7497 26.6569 35.3734 27.2998 34.7617 27.4649C34.6716 27.4874 34.5628 27.5001 34.4668 27.5001C33.9423 27.5001 33.4744 27.1513 33.333 26.6212C32.8205 24.6826 31.3188 23.1784 29.3916 22.6827H29.3926C28.7581 22.5182 28.3872 21.8897 28.5508 21.2589ZM29.8105 13.5958C36.3975 14.4197 41.5662 19.591 42.3877 26.1788V26.1797C42.4692 26.8204 42.0149 27.4053 41.3701 27.4874L41.3408 27.4913L41.3125 27.4981C41.3166 27.4971 41.3144 27.4983 41.3018 27.4991C41.2867 27.5 41.269 27.5001 41.2334 27.5001C40.6491 27.5001 40.1499 27.0684 40.0801 26.4747L40.0791 26.4708C39.3838 20.9443 35.0558 16.6162 29.5293 15.921L29.5205 15.92L29.4043 15.9005C28.8312 15.7776 28.4361 15.2325 28.5127 14.6299L28.5137 14.6212C28.5828 13.9879 29.1609 13.526 29.8105 13.5958Z" fill="#E3A5A2" stroke="#7F3835"/>
</svg>
