<svg width="56" height="56" viewBox="0 0 56 56" fill="none" xmlns="http://www.w3.org/2000/svg">
<rect width="56" height="56" rx="28" fill="#F3D6D5" fill-opacity="0.5"/>
<rect x="0.5" y="0.5" width="55" height="55" rx="27.5" stroke="#EAB9B7" stroke-opacity="0.5"/>
<path d="M27.9995 16C36.0495 16 42.9334 20.9649 45.7905 28C42.9334 35.0351 36.0495 40 27.9995 40C19.9494 39.9999 13.0645 35.0353 10.2075 28C13.0645 20.9647 19.9494 16.0001 27.9995 16ZM27.9995 19.167C23.1235 19.1672 19.1665 23.124 19.1665 28C19.1665 32.876 23.1235 36.8328 27.9995 36.833C32.8757 36.833 36.8335 32.8761 36.8335 28C36.8335 23.1239 32.8757 19.167 27.9995 19.167ZM27.9995 23.5C30.49 23.5 32.4995 25.5095 32.4995 28C32.4995 30.4905 30.49 32.5 27.9995 32.5C25.5091 32.4998 23.4995 30.4904 23.4995 28C23.4995 25.5096 25.5091 23.5002 27.9995 23.5Z" fill="#E3A5A2" stroke="#7F3835"/>
</svg>
