<svg width="40" height="40" viewBox="0 0 40 40" fill="none" xmlns="http://www.w3.org/2000/svg">
<path d="M18.928 7.16028C19.3231 6.21895 20.6774 6.21893 21.0725 7.16028L21.0735 7.16223L24.2229 14.5948L24.3411 14.8732L24.6409 14.8986L32.6917 15.5812L32.6936 15.5822C33.7151 15.6634 34.1398 16.944 33.3567 17.6222H33.3557L27.2395 22.922L27.011 23.1193L27.0803 23.4132L28.9133 31.2804C29.1319 32.2219 28.1924 32.9754 27.344 32.6241L27.176 32.5392L20.259 28.3556L20.0002 28.1993L19.7424 28.3546L12.8254 32.5216L12.8245 32.5226C11.9383 33.0587 10.854 32.2681 11.0872 31.2638L12.9202 23.3966L12.9885 23.1027L12.761 22.9054L6.6438 17.6056C5.86043 16.9274 6.28532 15.6468 7.30688 15.5656L7.30884 15.5646L15.3586 14.882L15.6594 14.8566L15.7766 14.5792L18.927 7.16223L18.928 7.16028Z" fill="#E3A5A2" stroke="#7F3835"/>
</svg>
