<svg width="56" height="56" viewBox="0 0 56 56" fill="none" xmlns="http://www.w3.org/2000/svg">
<rect width="56" height="56" rx="28" fill="#F3D6D5" fill-opacity="0.5"/>
<rect x="0.5" y="0.5" width="55" height="55" rx="27.5" stroke="#EAB9B7" stroke-opacity="0.5"/>
<path d="M27.9998 32.6667H34.6667C35.0618 32.6671 35.4477 32.7849 35.7761 33.0045C36.1047 33.2243 36.3612 33.5368 36.5125 33.902C36.6635 34.2671 36.7027 34.6687 36.6257 35.0563C36.5487 35.4439 36.3591 35.8001 36.0798 36.0797L33.6814 38.4801L32.8289 39.3336H34.6667C35.1972 39.3336 35.7057 39.5445 36.0808 39.9196C36.4558 40.2946 36.6667 40.8033 36.6667 41.3336C36.6667 41.864 36.4558 42.3727 36.0808 42.7477C35.7058 43.1227 35.1971 43.3336 34.6667 43.3336H28.0007C27.6055 43.3333 27.2189 43.2155 26.8904 42.9958C26.5618 42.776 26.3053 42.4635 26.1541 42.0983C26.003 41.7332 25.9639 41.3315 26.0408 40.944C26.1178 40.5563 26.3083 40.1993 26.5876 39.9196L26.5867 39.9186L29.8386 36.6667H27.9998C27.4694 36.6666 26.9607 36.4557 26.5857 36.0807C26.2107 35.7057 25.9998 35.197 25.9998 34.6667C25.9998 34.1363 26.2107 33.6277 26.5857 33.2526C26.9139 32.9244 27.3446 32.7219 27.8025 32.6764L27.9998 32.6667ZM14.6667 20.9997H22.9998C23.395 21 23.7816 21.1178 24.1101 21.3376C24.4386 21.5573 24.6943 21.8698 24.8455 22.235C24.9966 22.6001 25.0366 23.0017 24.9597 23.3893C24.8827 23.777 24.6922 24.134 24.4128 24.4137L20.3494 28.4801L19.4968 29.3336H22.9998C23.5302 29.3336 24.0387 29.5445 24.4138 29.9196C24.7889 30.2947 24.9998 30.8032 24.9998 31.3336C24.9997 31.864 24.7888 32.3727 24.4138 32.7477C24.0388 33.1226 23.53 33.3336 22.9998 33.3336H14.6667C14.2717 33.3332 13.8858 33.2153 13.5574 32.9958C13.2288 32.776 12.9723 32.4635 12.821 32.0983C12.6699 31.7332 12.6308 31.3316 12.7078 30.944C12.7848 30.5564 12.9735 30.1992 13.2527 29.9196L13.2537 29.9206L17.3191 25.8532L18.1716 24.9997H14.6667C14.1363 24.9997 13.6278 24.7888 13.2527 24.4137C12.8777 24.0387 12.6667 23.53 12.6667 22.9997C12.6668 22.4693 12.8777 21.9606 13.2527 21.5856C13.6277 21.2106 14.1364 20.9997 14.6667 20.9997ZM29.6667 12.6667H41.3337C41.729 12.6668 42.1154 12.784 42.4441 13.0036C42.7729 13.2233 43.029 13.5357 43.1804 13.901C43.3318 14.2663 43.3717 14.6685 43.2947 15.0563C43.2177 15.444 43.0272 15.8 42.7478 16.0797L35.3484 23.4801L34.4949 24.3336H41.3337C41.5962 24.3337 41.8559 24.3856 42.0984 24.486C42.341 24.5865 42.5621 24.7339 42.7478 24.9196C42.9334 25.1052 43.0809 25.3255 43.1814 25.568C43.2819 25.8106 43.3337 26.0711 43.3337 26.3336C43.3337 26.596 43.2818 26.8559 43.1814 27.0983C43.0809 27.3409 42.9335 27.562 42.7478 27.7477C42.5621 27.9334 42.341 28.0808 42.0984 28.1813C41.856 28.2817 41.5961 28.3336 41.3337 28.3336H29.6667C29.2715 28.3335 28.8851 28.2162 28.5564 27.9967C28.2277 27.7771 27.9715 27.4644 27.8201 27.0993C27.6687 26.734 27.6288 26.3319 27.7058 25.944C27.7827 25.5564 27.9716 25.1993 28.2507 24.9196L28.2517 24.9206L36.5056 16.6667H29.6667C29.1363 16.6667 28.6278 16.4558 28.2527 16.0807C27.8776 15.7056 27.6667 15.1971 27.6667 14.6667C27.6667 14.1362 27.8776 13.6277 28.2527 13.2526C28.6278 12.8775 29.1363 12.6667 29.6667 12.6667Z" fill="#E3A5A2" stroke="#7F3835"/>
</svg>
