<svg width="56" height="56" viewBox="0 0 56 56" fill="none" xmlns="http://www.w3.org/2000/svg">
<rect width="56" height="56" rx="28" fill="#F3D6D5" fill-opacity="0.5"/>
<rect x="0.5" y="0.5" width="55" height="55" rx="27.5" stroke="#EAB9B7" stroke-opacity="0.5"/>
<path d="M26.3333 21.3333V29.6667L33.4167 33.8667L34.7 31.7333L28.8333 28.25V21.3333H26.3333ZM43 24.6667V13L38.6 17.4C35.9 14.6833 32.15 13 28 13C19.7167 13 13 19.7167 13 28C13 36.2833 19.7167 43 28 43C36.2833 43 43 36.2833 43 28H39.6667C39.6667 34.4333 34.4333 39.6667 28 39.6667C21.5667 39.6667 16.3333 34.4333 16.3333 28C16.3333 21.5667 21.5667 16.3333 28 16.3333C31.2167 16.3333 34.1333 17.65 36.25 19.75L31.3333 24.6667H43Z" fill="#7F3835"/>
</svg>
