<svg width="56" height="56" viewBox="0 0 56 56" fill="none" xmlns="http://www.w3.org/2000/svg">
<rect width="56" height="56" rx="28" fill="#F3D6D5" fill-opacity="0.5"/>
<rect x="0.5" y="0.5" width="55" height="55" rx="27.5" stroke="#EAB9B7" stroke-opacity="0.5"/>
<path d="M24.667 10.1667H31.333C31.9735 10.1667 32.5 10.6932 32.5 11.3337C32.4998 11.9741 31.9734 12.4997 31.333 12.4997H24.667C24.0266 12.4997 23.5002 11.9741 23.5 11.3337C23.5 10.6932 24.0265 10.1667 24.667 10.1667Z" fill="#E3A5A2" stroke="#7F3835"/>
<path d="M28 15.1667C31.4145 15.1667 34.5558 16.358 37.0547 18.3571L37.4043 18.6364L38.9658 17.0749C39.4275 16.625 40.1477 16.6211 40.5967 17.07L40.6133 17.0866C41.0647 17.5381 41.0546 18.2722 40.6133 18.7136L39.3633 19.9636L39.0469 20.279L39.3262 20.6286C41.3086 23.1107 42.5 26.2518 42.5 29.6667C42.5 37.6742 36.0235 44.1667 28 44.1667C19.8476 44.1666 13.2905 37.4642 13.5 29.279C13.6933 21.5517 20.2701 15.1668 28 15.1667ZM28 20.8337C26.8074 20.8338 25.8342 21.8071 25.834 22.9997V29.6667C25.834 30.8594 26.8073 31.8336 28 31.8337C29.1928 31.8337 30.167 30.8595 30.167 29.6667V22.9997C30.1668 21.807 29.1927 20.8337 28 20.8337Z" fill="#E3A5A2" stroke="#7F3835"/>
</svg>
