<svg width="56" height="56" viewBox="0 0 56 56" fill="none" xmlns="http://www.w3.org/2000/svg">
<rect width="56" height="56" rx="28" fill="#F3D6D5" fill-opacity="0.5"/>
<rect x="0.5" y="0.5" width="55" height="55" rx="27.5" stroke="#EAB9B7" stroke-opacity="0.5"/>
<path d="M28 10.1667C29.9439 10.1667 31.5969 11.4234 32.2295 13.1706L32.3496 13.4997H39.667C41.224 13.4999 42.5 14.7766 42.5 16.3337V39.6667C42.5 41.2238 41.224 42.4995 39.667 42.4997H16.333C14.776 42.4995 13.5 41.2238 13.5 39.6667V16.3337C13.5 14.7766 14.776 13.4999 16.333 13.4997H23.6504L23.7705 13.1706C24.4031 11.4234 26.0561 10.1667 28 10.1667ZM19.5635 32.1794C19.2918 32.4344 19.167 32.7842 19.167 33.1169V35.4997C19.167 36.2425 19.7572 36.8337 20.5 36.8337H22.833C23.1707 36.8337 23.5188 36.7055 23.7705 36.4538L33.8408 26.3835L33.4873 26.03L29.9531 22.4968L29.5996 22.1432L19.5635 32.1794ZM34.0869 19.5632C33.5583 19.0346 32.7249 19.0346 32.1963 19.5632L30.0762 21.6833L34.3164 25.9235L36.4365 23.8034C36.9651 23.2748 36.9651 22.4414 36.4365 21.9128L34.0869 19.5632ZM28 12.0837C27.0405 12.0837 26.25 12.8742 26.25 13.8337C26.2502 14.793 27.0406 15.5837 28 15.5837C28.9594 15.5837 29.7498 14.793 29.75 13.8337C29.75 12.8742 28.9595 12.0837 28 12.0837Z" fill="#E3A5A2" stroke="#7F3835"/>
</svg>
